<?xml version="1.0" encoding="UTF-8" standalone="no"?>
<!-- Created with Inkscape (http://www.inkscape.org/) -->

<svg
   width="459.70868mm"
   height="209.78134mm"
   viewBox="0 0 459.70868 209.78134"
   version="1.1"
   id="svg1"
   xml:space="preserve"
   xmlns="http://www.w3.org/2000/svg"
   xmlns:svg="http://www.w3.org/2000/svg"><defs
     id="defs1" /><g
     id="layer1"
     style="display:inline"
     transform="translate(124.18245,-89.34847)"><path
       id="path1-84-8"
       style="fill:#111214;fill-opacity:1;stroke:#000000;stroke-width:0.529167;stroke-dasharray:none;stroke-opacity:1"
       d="m 94.285156,257.62891 c 7.932944,13.74023 15.865884,27.48047 23.798824,41.2207 15.86589,0 31.73178,0 47.59766,0 7.93294,-13.74024 15.86589,-27.48047 23.79883,-41.2207 -7.93294,-13.74024 -15.86589,-27.48047 -23.79883,-41.22071 -15.86588,0 -31.73177,0 -47.59766,0 -7.93294,13.74024 -15.86588,27.48047 -23.798824,41.22071 z" /><path
       id="path1-84-6-5-2"
       style="fill:#111214;fill-opacity:1;stroke:#000000;stroke-width:0.529167;stroke-dasharray:none;stroke-opacity:1"
       d="m -51.642578,257.64453 c 7.932292,13.74024 15.864583,27.48047 23.796875,41.2207 15.865885,0 31.7317707,0 47.597656,0 7.932943,-13.74023 15.865886,-27.48046 23.798828,-41.2207 -7.932942,-13.74023 -15.865885,-27.48047 -23.798828,-41.2207 -15.8658853,0 -31.731771,0 -47.597656,0 -7.932292,13.74023 -15.864583,27.48047 -23.796875,41.2207 z" /><path
       id="path1-84-7-4"
       style="fill:#111214;fill-opacity:1;stroke:#000000;stroke-width:0.529167;stroke-dasharray:none;stroke-opacity:1"
       d="m 190.82422,90.335938 c -7.93229,13.739582 -15.86458,27.479162 -23.79688,41.218752 7.93295,13.74023 15.86589,27.48047 23.79883,41.2207 15.86589,0 31.73177,0 47.59766,0 7.93229,-13.74023 15.86458,-27.48047 23.79687,-41.2207 -7.93229,-13.74024 -15.86458,-27.48047 -23.79687,-41.220706 -15.86627,0.0013 -31.73469,-0.0026 -47.59961,0.002 z" /><path
       id="path1-84-7-5-4"
       style="fill:#111214;fill-opacity:1;stroke:#000000;stroke-width:0.529167;stroke-dasharray:none;stroke-opacity:1"
       d="m 167.06445,215.68945 c 7.93229,13.74024 15.86459,27.48047 23.79688,41.22071 15.86588,0 31.73177,0 47.59765,0 7.93295,-13.74024 15.86589,-27.48047 23.79883,-41.22071 -7.93294,-13.74023 -15.86588,-27.48047 -23.79883,-41.2207 -15.86588,0 -31.73177,0 -47.59765,0 -7.93229,13.74023 -15.86459,27.48047 -23.79688,41.2207 z" /><path
       id="path1-84-6-58"
       style="fill:#111214;fill-opacity:1;stroke:#000000;stroke-width:0.529167;stroke-dasharray:none;stroke-opacity:1"
       d="m 21.529297,131.47656 c 7.932943,13.74024 15.865885,27.48047 23.798828,41.22071 15.865234,0 31.730469,0 47.595703,0 7.932942,-13.74024 15.865882,-27.48047 23.798832,-41.22071 -7.93295,-13.74023 -15.86589,-27.48047 -23.798832,-41.220701 -15.865234,0 -31.730469,0 -47.595703,0 C 37.395182,103.99609 29.46224,117.73633 21.529297,131.47656 Z" /><path
       id="path1-84-6-5-29"
       style="fill:#111214;fill-opacity:1;stroke:#000000;stroke-width:0.529167;stroke-dasharray:none;stroke-opacity:1"
       d="m -27.414062,132.48633 c -7.932292,13.73958 -15.864584,27.47916 -23.796876,41.21875 7.932943,13.73958 15.865886,27.47916 23.798829,41.21875 15.865234,0 31.7304684,0 47.595703,0 7.932942,-13.73959 15.865885,-27.47917 23.798828,-41.21875 -7.932943,-13.74024 -15.865886,-27.48047 -23.798828,-41.2207 -15.8656159,0.001 -31.733389,-0.003 -47.597656,0.002 z" /><path
       id="path1-84-6-5-8-8"
       style="fill:#111214;fill-opacity:1;stroke:#000000;stroke-width:0.529167;stroke-dasharray:none;stroke-opacity:1"
       d="m 21.386719,215.33594 c 7.932942,13.74023 15.865885,27.48047 23.798828,41.2207 15.865234,0 31.730469,0 47.595703,0 7.93294,-13.74023 15.86589,-27.48047 23.79883,-41.2207 -7.93294,-13.74024 -15.86589,-27.48047 -23.79883,-41.22071 -15.865234,0 -31.730469,0 -47.595703,0 -7.932943,13.74024 -15.865886,27.48047 -23.798828,41.22071 z" /><path
       id="path1-84-69-2"
       style="fill:#111214;fill-opacity:1;stroke:#000000;stroke-width:0.529167;stroke-dasharray:none;stroke-opacity:1"
       d="m 94.148438,173.64453 c 7.932942,13.74024 15.865882,27.48047 23.798832,41.2207 15.86523,0 31.73046,0 47.5957,0 7.93294,-13.74023 15.86588,-27.48046 23.79883,-41.2207 -7.93295,-13.74023 -15.86589,-27.48047 -23.79883,-41.2207 -15.86524,0 -31.73047,0 -47.5957,0 -7.93295,13.74023 -15.86589,27.48047 -23.798832,41.2207 z" /><path
       id="path1-84-7-9-0"
       style="fill:#111214;fill-opacity:1;stroke:#000000;stroke-width:0.529167;stroke-dasharray:none;stroke-opacity:1"
       d="m 240.02734,173.66211 c 7.9323,13.74023 15.86459,27.48047 23.79688,41.2207 15.86588,0 31.73177,0 47.59766,0 7.93294,-13.74023 15.86588,-27.48047 23.79882,-41.2207 -7.93294,-13.74023 -15.86588,-27.48047 -23.79882,-41.2207 -15.86589,0 -31.73178,0 -47.59766,0 -7.93229,13.74023 -15.86458,27.48046 -23.79688,41.2207 z" /><path
       id="path1-84-6-58-7"
       style="fill:#111214;fill-opacity:1;stroke:#000000;stroke-width:0.529167;stroke-dasharray:none;stroke-opacity:1"
       d="m -99.939453,90.679688 c -7.932287,13.739582 -15.864587,27.479162 -23.796877,41.218752 7.93294,13.74023 15.86589,27.48047 23.79883,41.2207 15.865885,0 31.731771,0 47.597656,0 7.932292,-13.74023 15.864584,-27.48047 23.796875,-41.2207 -7.932291,-13.74024 -15.864583,-27.48047 -23.796875,-41.220706 -15.866266,0.0013 -31.734691,-0.0026 -47.599609,0.002 z" /><path
       id="path1-84-6-5-8-8-6"
       style="fill:#111214;fill-opacity:1;stroke:#000000;stroke-width:0.529167;stroke-dasharray:none;stroke-opacity:1"
       d="m -100.08203,174.53906 c -7.93164,13.73959 -15.86328,27.47917 -23.79492,41.21875 7.93229,13.73959 15.86458,27.47917 23.79687,41.21875 15.865887,0 31.731773,0 47.597658,0 7.932943,-13.73958 15.865886,-27.47916 23.798828,-41.21875 -7.932942,-13.74023 -15.865885,-27.48047 -23.798828,-41.2207 -15.865885,10e-4 -31.736979,-0.003 -47.599608,0.002 z" /></g></svg>
