<svg xmlns="http://www.w3.org/2000/svg" xmlns:xlink="http://www.w3.org/1999/xlink" xml:space="preserve" width="460.22818mm" height="1850.701mm" viewBox="0 0 460.22818 1850.701"><defs><linearGradient id="a"><stop offset="0" style="stop-color:#3a3f42;stop-opacity:1"/><stop offset="1" style="stop-color:#2b2f32;stop-opacity:1"/></linearGradient><linearGradient xlink:href="#a" id="k" x1="101.44505" x2="168.23807" y1="-74.962181" y2="-115.78767" gradientTransform="translate(123.132 204.634)" gradientUnits="userSpaceOnUse"/><linearGradient xlink:href="#a" id="m" x1="101.44505" x2="168.23807" y1="-74.962181" y2="-115.78767" gradientTransform="translate(57.128 262.334)" gradientUnits="userSpaceOnUse"/><linearGradient xlink:href="#a" id="i" x1="101.44505" x2="168.23807" y1="-74.962181" y2="-115.78767" gradientTransform="translate(129.893 303.688)" gradientUnits="userSpaceOnUse"/><linearGradient xlink:href="#a" id="g" x1="101.44505" x2="168.23807" y1="-74.962181" y2="-115.78767" gradientTransform="translate(202.124 262.279)" gradientUnits="userSpaceOnUse"/><linearGradient xlink:href="#a" id="e" x1="101.44505" x2="168.23807" y1="-74.962181" y2="-115.78767" gradientTransform="translate(-2.746 310.184)" gradientUnits="userSpaceOnUse"/><linearGradient xlink:href="#a" id="d" x1="-51.688328" x2="44.116055" y1="-79.268669" y2="-79.268669" gradientUnits="userSpaceOnUse"/><linearGradient xlink:href="#a" id="c" x1="21.098783" x2="116.90317" y1="-121.18468" y2="-121.18468" gradientUnits="userSpaceOnUse"/><linearGradient xlink:href="#a" id="b" x1="166.7648" x2="262.57114" y1="-121.27062" y2="-121.27062" gradientUnits="userSpaceOnUse"/><filter id="l" width="1.6818369" height="2.2490422" x="-0.33615792" y="-0.38815442" style="color-interpolation-filters:sRGB"><feFlood flood-color="#000" flood-opacity="1.000000" result="flood"/><feGaussianBlur in="SourceGraphic" result="blur" stdDeviation="6.666667"/><feOffset dx="0.453172" dy="19.486404" in="blur" result="offset"/><feComposite in="flood" in2="offset" operator="in" result="comp1"/><feComposite in="SourceGraphic" in2="comp1" result="fbSourceGraphic"/><feColorMatrix in="fbSourceGraphic" result="fbSourceGraphicAlpha" values="0 0 0 -1 0 0 0 0 -1 0 0 0 0 -1 0 0 0 0 1 0"/><feFlood flood-color="#000" flood-opacity="1.000000" result="flood"/><feGaussianBlur in="fbSourceGraphic" result="blur" stdDeviation="6.666667"/><feOffset dx="0.453172" dy="19.486404" in="blur" result="offset"/><feComposite in="flood" in2="offset" operator="in" result="comp1"/><feComposite in="fbSourceGraphic" in2="comp1" result="comp2"/></filter><filter id="n" width="1.6818368" height="2.2490422" x="-0.33615788" y="-0.38815442" style="color-interpolation-filters:sRGB"><feFlood flood-color="#000" flood-opacity="1.000000" result="flood"/><feGaussianBlur in="SourceGraphic" result="blur" stdDeviation="6.666667"/><feOffset dx="0.453172" dy="19.486404" in="blur" result="offset"/><feComposite in="flood" in2="offset" operator="in" result="comp1"/><feComposite in="SourceGraphic" in2="comp1" result="fbSourceGraphic"/><feColorMatrix in="fbSourceGraphic" result="fbSourceGraphicAlpha" values="0 0 0 -1 0 0 0 0 -1 0 0 0 0 -1 0 0 0 0 1 0"/><feFlood flood-color="#000" flood-opacity="1.000000" result="flood"/><feGaussianBlur in="fbSourceGraphic" result="blur" stdDeviation="6.666667"/><feOffset dx="0.453172" dy="19.486404" in="blur" result="offset"/><feComposite in="flood" in2="offset" operator="in" result="comp1"/><feComposite in="fbSourceGraphic" in2="comp1" result="comp2"/></filter><filter id="j" width="1.6818369" height="2.2490422" x="-0.33615792" y="-0.38815442" style="color-interpolation-filters:sRGB"><feFlood flood-color="#000" flood-opacity="1.000000" result="flood"/><feGaussianBlur in="SourceGraphic" result="blur" stdDeviation="6.666667"/><feOffset dx="0.453172" dy="19.486404" in="blur" result="offset"/><feComposite in="flood" in2="offset" operator="in" result="comp1"/><feComposite in="SourceGraphic" in2="comp1" result="fbSourceGraphic"/><feColorMatrix in="fbSourceGraphic" result="fbSourceGraphicAlpha" values="0 0 0 -1 0 0 0 0 -1 0 0 0 0 -1 0 0 0 0 1 0"/><feFlood flood-color="#000" flood-opacity="1.000000" result="flood"/><feGaussianBlur in="fbSourceGraphic" result="blur" stdDeviation="6.666667"/><feOffset dx="0.453172" dy="19.486404" in="blur" result="offset"/><feComposite in="flood" in2="offset" operator="in" result="comp1"/><feComposite in="fbSourceGraphic" in2="comp1" result="comp2"/></filter><filter id="h" width="1.6818369" height="2.2490422" x="-0.33615792" y="-0.38815442" style="color-interpolation-filters:sRGB"><feFlood flood-color="#000" flood-opacity="1.000000" result="flood"/><feGaussianBlur in="SourceGraphic" result="blur" stdDeviation="6.666667"/><feOffset dx="0.453172" dy="19.486404" in="blur" result="offset"/><feComposite in="flood" in2="offset" operator="in" result="comp1"/><feComposite in="SourceGraphic" in2="comp1" result="fbSourceGraphic"/><feColorMatrix in="fbSourceGraphic" result="fbSourceGraphicAlpha" values="0 0 0 -1 0 0 0 0 -1 0 0 0 0 -1 0 0 0 0 1 0"/><feFlood flood-color="#000" flood-opacity="1.000000" result="flood"/><feGaussianBlur in="fbSourceGraphic" result="blur" stdDeviation="6.666667"/><feOffset dx="0.453172" dy="19.486404" in="blur" result="offset"/><feComposite in="flood" in2="offset" operator="in" result="comp1"/><feComposite in="fbSourceGraphic" in2="comp1" result="comp2"/></filter><filter id="f" width="1.6818369" height="2.2490422" x="-0.3361579" y="-0.38815442" style="color-interpolation-filters:sRGB"><feFlood flood-color="#000" flood-opacity="1.000000" result="flood"/><feGaussianBlur in="SourceGraphic" result="blur" stdDeviation="6.666667"/><feOffset dx="0.453172" dy="19.486404" in="blur" result="offset"/><feComposite in="flood" in2="offset" operator="in" result="comp1"/><feComposite in="SourceGraphic" in2="comp1" result="fbSourceGraphic"/><feColorMatrix in="fbSourceGraphic" result="fbSourceGraphicAlpha" values="0 0 0 -1 0 0 0 0 -1 0 0 0 0 -1 0 0 0 0 1 0"/><feFlood flood-color="#000" flood-opacity="1.000000" result="flood"/><feGaussianBlur in="fbSourceGraphic" result="blur" stdDeviation="6.666667"/><feOffset dx="0.453172" dy="19.486404" in="blur" result="offset"/><feComposite in="flood" in2="offset" operator="in" result="comp1"/><feComposite in="fbSourceGraphic" in2="comp1" result="comp2"/></filter></defs><g style="display:inline"><path d="m118.016 1478.785-23.797 41.219 23.799 41.218h47.595l23.8-41.218-23.8-41.221h-47.597z" style="fill:#111214;fill-opacity:1;stroke:#000;stroke-width:.529167;stroke-dasharray:none;stroke-opacity:1" transform="translate(124.464 205.077)"/><path d="m94.254 1604.138 23.799 41.221h47.597l23.8-41.22-23.8-41.221h-47.597z" style="display:inline;fill:#1e1f21;fill-opacity:1;stroke:#000;stroke-width:.529167;stroke-dasharray:none;stroke-opacity:1" transform="translate(124.464 205.077)"/><path d="m94.285 1435.963 23.799 41.22h47.598l23.798-41.22-23.798-41.221h-47.598zm72.889 41.961 23.799 41.22h47.595l23.8-41.22-23.8-41.221h-47.595z" style="fill:#111214;fill-opacity:1;stroke:#000;stroke-width:.529167;stroke-dasharray:none;stroke-opacity:1" transform="translate(124.464 205.077)"/><path d="m21.506 1478.01 23.799 41.22h47.597l23.797-41.22-23.797-41.221H45.305zm-72.786 41.916 23.798 41.22h47.597l23.8-41.22-23.8-41.221h-47.597z" style="display:inline;fill:#1e1f21;fill-opacity:1;stroke:#000;stroke-width:.529167;stroke-dasharray:none;stroke-opacity:1" transform="translate(124.464 205.077)"/><path d="m-100.223 1520.935-23.797 41.217 23.8 41.22h47.595l23.799-41.22-23.799-41.219h-47.598z" style="fill:#111214;fill-opacity:1;stroke:#000;stroke-width:.529167;stroke-dasharray:none;stroke-opacity:1" transform="translate(124.464 205.077)"/><path d="m-51.422 1603.785 23.799 41.22h47.596l23.798-41.22-23.798-41.22h-47.596zm72.762-41.691 23.797 41.22h47.597l23.8-41.22-23.8-41.221H45.137zm145.877.017 23.799 41.22h47.597l23.8-41.22-23.8-41.22h-47.597z" style="display:inline;fill:#1e1f21;fill-opacity:1;stroke:#000;stroke-width:.529167;stroke-dasharray:none;stroke-opacity:1" transform="translate(124.464 205.077)"/><path d="m-51.643 1435.978 23.797 41.221h47.598l23.799-41.22-23.799-41.221h-47.598zm-72.412 42.069 23.797 41.22h47.598l23.799-41.22-23.8-41.221h-47.597zM190.824 90.336l-23.797 41.219 23.8 41.22h47.597l23.797-41.22-23.797-41.221c-15.866.001-31.735-.003-47.6.002zm-23.76 1303.687 23.797 41.22h47.598l23.799-41.22-23.799-41.22h-47.598zm.032-1346.509 23.797 41.22h47.597l23.8-41.22-23.8-41.221h-47.597zm96.684.744-23.798 41.217 23.8 41.22h47.595l23.799-41.22-23.799-41.22c-15.866.002-31.733-.002-47.598.003zm-145.669.086L94.316 89.56l23.797 41.22h47.598l23.799-41.22-23.8-41.22c-15.865.002-31.736-.002-47.599.003zM21.53 131.477l23.798 41.22h47.596l23.799-41.22-23.8-41.221H45.329zm-48.944 1.009-23.797 41.22 23.799 41.218h47.596l23.798-41.219-23.798-41.22c-15.866 0-31.734-.004-47.598.001zM21.387 1393.67l23.799 41.22H92.78l23.8-41.22-23.8-41.221H45.186zM94.148 173.645l23.8 41.22h47.595l23.799-41.22-23.799-41.221h-47.596zm145.879.017 23.797 41.22h47.598l23.799-41.22-23.8-41.22h-47.597zM44.963 6.313 21.166 47.529 44.965 88.75H92.56l23.798-41.22L92.561 6.31c-15.866.002-31.734-.002-47.598.003ZM-99.94 90.68l-23.796 41.218 23.799 41.221h47.597l23.797-41.22-23.797-41.221c-15.866.001-31.735-.003-47.6.002zm-.142 1262.193-23.795 41.219 23.797 41.218h47.598l23.798-41.218-23.798-41.221h-47.6zM-124.1 47.951l23.8 41.22h47.597l23.799-41.22-23.8-41.22H-100.3zm72.854 41.647 23.799 41.22h47.595l23.8-41.22-23.8-41.221h-47.595zM94.117-78.832l23.797 41.22h47.598l23.799-41.22-23.8-41.22h-47.597zm23.833 42.918L94.151 5.305l23.8 41.218h47.595l23.799-41.218-23.8-41.221c-15.865.001-31.733-.003-47.597.002zm.03-168.176-23.796 41.22 23.798 41.219h47.596l23.799-41.22-23.799-41.22c-15.865.001-31.733-.003-47.598.002z" style="fill:#111214;fill-opacity:1;stroke:#000;stroke-width:.529167;stroke-dasharray:none;stroke-opacity:1" transform="translate(124.464 205.077)"/><path d="M190.867-162.129 167.07-120.91l23.8 41.22h47.597l23.799-41.22-23.8-41.22c-15.865 0-31.734-.004-47.599.001z" style="fill:url(#b);fill-opacity:1;stroke:#000;stroke-width:.529167;stroke-dasharray:none;stroke-opacity:1" transform="translate(124.464 205.077)"/><path d="m45.201-162.043-23.797 41.219 23.8 41.22h47.595l23.799-41.22-23.8-41.22c-15.865 0-31.733-.004-47.597.001z" style="fill:url(#c);fill-opacity:1;stroke:#000;stroke-width:.529167;stroke-dasharray:none;stroke-opacity:1" transform="translate(124.464 205.077)"/><path d="m-27.586-120.127-23.797 41.219 23.799 41.22h47.598l23.797-41.22-23.797-41.22c-15.867 0-31.735-.004-47.6.001z" style="fill:url(#d);fill-opacity:1;stroke:#000;stroke-width:.529167;stroke-dasharray:none;stroke-opacity:1" transform="translate(124.464 205.077)"/><path d="m-124.123-36.682 23.799 41.221h47.597l23.8-41.22-23.8-41.221h-47.597zm96.394.414L-51.525 4.95l23.798 41.22h47.598L43.67 4.95l-23.8-41.22c-15.866.002-31.737-.002-47.6.002zm72.762-41.691L21.236-36.74l23.8 41.22H92.63l23.799-41.22-23.8-41.22c-15.865 0-31.733-.004-47.597.001zm122.082 41.234 23.8 41.221h47.595l23.799-41.22-23.8-41.221h-47.595zm-218.861-126.13 23.799 41.22H19.65l23.797-41.22-23.797-41.221h-47.597zm-48.615.849-23.797 41.219 23.799 41.22h47.597l23.797-41.22-23.797-41.22c-15.866 0-31.734-.004-47.6.001zm340.453 83.352 23.799 41.22h47.597l23.797-41.22-23.797-41.221h-47.597zm23.654 42.64L239.95 5.206l23.799 41.22h47.598l23.799-41.22-23.8-41.222c-15.865.002-31.736-.002-47.599.002zm-24.017-126.588 23.798 41.221h47.598l23.797-41.22-23.797-41.221h-47.598zm24.334 1641.221-23.797 41.219 23.798 41.218h47.596l23.799-41.218-23.799-41.221h-47.598zm-23.94 125.076 23.799 41.22h47.596l23.798-41.22-23.798-41.22h-47.596zm23.577-209.023-23.798 41.218 23.8 41.221h47.595l23.799-41.22-23.8-41.221H263.7z" style="fill:#111214;fill-opacity:1;stroke:#000;stroke-width:.529167;stroke-dasharray:none;stroke-opacity:1" transform="translate(124.464 205.077)"/><path d="m94.247 1351.949 23.799 41.22h47.598l23.798-41.22-23.798-41.221h-47.598zm-145.927.015 23.796 41.221h47.598l23.799-41.22-23.8-41.221h-47.597zm218.706-41.954 23.797 41.22h47.598l23.799-41.22-23.8-41.222h-47.597zm-145.677-.354 23.798 41.22h47.596l23.799-41.22-23.799-41.221H45.147zm-121.469-40.797-23.795 41.219 23.797 41.218h47.597l23.8-41.218-23.8-41.221h-47.6zm363.781 41.799-23.797 41.218 23.799 41.221h47.596l23.799-41.22-23.8-41.221h-47.597zm-169.414-42.852 23.799 41.22h47.598l23.798-41.22-23.798-41.22h-47.598zm-145.927.016 23.796 41.22h47.598l23.799-41.22-23.8-41.221h-47.597zm218.706-41.955 23.797 41.22h47.598l23.799-41.22-23.8-41.221h-47.597zm-145.677-.354 23.798 41.22h47.596l23.799-41.22-23.799-41.22H45.147zm-121.469-40.797-23.795 41.219 23.797 41.219h47.597l23.8-41.219-23.8-41.22zm363.781 41.799-23.797 41.219 23.799 41.22h47.596l23.799-41.22-23.8-41.22zm-169.414-42.754 23.799 41.221h47.598l23.798-41.22-23.798-41.221h-47.598zm-145.927.016 23.796 41.22h47.598l23.799-41.22-23.8-41.22h-47.597zm218.706-41.955 23.797 41.22h47.598l23.799-41.22-23.8-41.22h-47.597zm-145.677-.354 23.798 41.221h47.596l23.799-41.22-23.799-41.221H45.147zm-121.469-40.797-23.795 41.22 23.797 41.218h47.597l23.8-41.219-23.8-41.22zm363.781 41.799-23.797 41.219 23.799 41.22h47.596l23.799-41.22-23.8-41.22zm-169.414-42.851 23.799 41.22h47.598l23.798-41.22-23.798-41.221h-47.598zm-145.927.015 23.796 41.221h47.598l23.799-41.22-23.8-41.221h-47.597zm218.706-41.954 23.797 41.22h47.598l23.799-41.22-23.8-41.222h-47.597zm-145.677-.354 23.798 41.22h47.596l23.799-41.22-23.799-41.221H45.147zm-121.469-40.797-23.795 41.219 23.797 41.218h47.597l23.8-41.218-23.8-41.221h-47.6zm363.781 41.799-23.797 41.218 23.799 41.221h47.596l23.799-41.22-23.8-41.221h-47.597zm-169.217-43.285 23.8 41.221h47.597l23.799-41.22-23.8-41.221h-47.597zm-145.927.016 23.796 41.22h47.598l23.799-41.22-23.799-41.22h-47.598zm218.707-41.955 23.797 41.22h47.597l23.799-41.22-23.799-41.22h-47.597zm-145.678-.354 23.799 41.221H92.94l23.8-41.22-23.8-41.221H45.345zm-121.469-40.797-23.795 41.22 23.797 41.218h47.598l23.799-41.219-23.8-41.22zm363.781 41.799-23.796 41.219 23.798 41.22h47.596l23.799-41.22-23.799-41.22zM94.406 931.03l23.8 41.22h47.597l23.799-41.22-23.8-41.221h-47.597zm-145.927.015 23.796 41.22h47.598l23.799-41.22-23.799-41.22h-47.598zm218.707-41.955 23.796 41.22h47.598l23.799-41.22-23.799-41.22h-47.598zm-145.678-.354 23.799 41.221h47.595l23.8-41.22-23.8-41.221H45.307zM-99.96 847.94l-23.796 41.218 23.797 41.219h47.598l23.798-41.219-23.798-41.22h-47.6zm363.78 41.798-23.797 41.22 23.8 41.22h47.595l23.799-41.22-23.799-41.222H263.82zM94.406 846.887l23.8 41.22h47.597l23.799-41.22-23.8-41.221h-47.597zm-145.927.015 23.796 41.221h47.598l23.799-41.22-23.799-41.221h-47.598zm315.341-41.306-23.797 41.218 23.8 41.221h47.595l23.799-41.22-23.799-41.221H263.82zm-96.919-.609 23.797 41.221h47.598l23.799-41.22-23.799-41.221h-47.598zm-145.677-.353 23.799 41.22h47.595l23.8-41.22-23.8-41.22H45.023zm-121.469-40.797-23.795 41.219 23.797 41.218h47.598l23.798-41.218-23.798-41.221h-47.6zm194.367-.955 23.799 41.22h47.598l23.798-41.22-23.798-41.22H117.92zm-145.928.016 23.797 41.22H19.59l23.799-41.22-23.799-41.221h-47.598zm218.707-41.956 23.797 41.221h47.598l23.799-41.22-23.799-41.221h-47.598zm-145.677-.353 23.799 41.22h47.595l23.8-41.22-23.8-41.22H45.023zm-121.469-40.797-23.795 41.219 23.797 41.219h47.598l23.798-41.22-23.798-41.22h-47.6zm363.781 41.798-23.797 41.22 23.8 41.22h47.595l23.799-41.22-23.8-41.221zM94.122 678.74l23.799 41.22h47.598l23.798-41.22-23.798-41.221H117.92zm-145.928.015 23.797 41.22H19.59l23.799-41.22-23.799-41.22h-47.598zM166.901 636.8l23.797 41.22h47.598l23.799-41.22-23.799-41.22h-47.598zm-145.677-.354 23.799 41.221h47.595l23.8-41.22-23.8-41.221H45.023zm-121.469-40.796-23.795 41.218 23.797 41.219h47.598l23.798-41.219-23.798-41.22h-47.6zm363.781 41.798-23.797 41.22 23.8 41.22h47.595l23.799-41.22-23.8-41.222h-47.597zM94.32 594.164l23.798 41.22h47.598l23.799-41.22-23.799-41.22h-47.598zm-145.928.016 23.797 41.22h47.597l23.8-41.22-23.8-41.221H-27.81zm218.707-41.956 23.797 41.221h47.597l23.8-41.22-23.8-41.221h-47.597zm-145.678-.354 23.799 41.222h47.596l23.798-41.221-23.798-41.22H45.22zm-121.469-40.796-23.795 41.219 23.797 41.218h47.598l23.799-41.218-23.8-41.221h-47.599zm363.782 41.799-23.797 41.219 23.798 41.22h47.596l23.799-41.22-23.799-41.221h-47.597zM94.281 510.15l23.8 41.22h47.597l23.799-41.22-23.8-41.22H118.08zm-145.927.015 23.796 41.221h47.598l23.799-41.22-23.799-41.221H-27.85zM167.06 468.21l23.798 41.221h47.597l23.799-41.22-23.799-41.221h-47.597zm-145.677-.353 23.799 41.22h47.595l23.8-41.22-23.8-41.22H45.182zm-121.469-40.797-23.795 41.219 23.797 41.219h47.598l23.799-41.22-23.8-41.22h-47.599zm363.781 41.799L239.9 510.078l23.798 41.22h47.596l23.799-41.22-23.799-41.221h-47.598zM94.281 426.007l23.8 41.221h47.597l23.799-41.22-23.8-41.221H118.08zm-145.927.016 23.796 41.22h47.598l23.799-41.22-23.799-41.22H-27.85zm218.706-41.955 23.798 41.22h47.597l23.799-41.22-23.799-41.221h-47.597zm-145.677-.354 23.799 41.221h47.595l23.8-41.22-23.8-41.221H45.182zm-121.469-40.797-23.795 41.22 23.797 41.218h47.598l23.799-41.219-23.8-41.22zm363.781 41.799L239.9 425.935l23.798 41.22h47.596l23.799-41.22-23.799-41.22h-47.598zM94.281 341.962l23.8 41.221h47.597l23.799-41.22-23.8-41.221H118.08zm-145.927.016 23.796 41.22h47.598l23.799-41.22-23.799-41.22H-27.85zm218.706-41.955 23.798 41.22h47.597l23.799-41.22-23.799-41.22h-47.597zm-145.677-.353 23.799 41.22h47.595l23.8-41.22-23.8-41.221H45.182zm-121.469-40.797-23.795 41.218 23.797 41.22h47.598l23.799-41.22-23.8-41.22h-47.599zm363.781 41.798-23.796 41.22 23.798 41.22h47.596l23.799-41.22-23.799-41.222h-47.598zM94.281 257.82l23.8 41.22h47.597l23.799-41.22-23.8-41.22H118.08zm-145.927.015 23.796 41.221h47.598l23.799-41.22-23.799-41.221H-27.85zM167.06 215.88l23.798 41.221h47.597l23.799-41.22-23.799-41.221h-47.597zm-145.677-.353 23.799 41.22h47.595l23.8-41.22-23.8-41.22H45.182zm-121.469-40.797-23.795 41.219 23.797 41.218h47.598l23.799-41.218-23.8-41.22h-47.599zm363.781 41.799L239.9 257.748l23.798 41.22h47.596l23.799-41.22-23.799-41.221h-47.598z" style="display:inline;fill:#111214;fill-opacity:1;stroke:#000;stroke-width:.529167;stroke-dasharray:none;stroke-opacity:1" transform="translate(124.464 205.077)"/></g><path d="m86.718 216.584 23.796 41.22h47.598l23.799-41.22-23.799-41.22h-47.598z" style="display:inline;fill:url(#e);stroke:none;stroke-width:.529167;stroke-dasharray:none;stroke-opacity:1;filter:url(#f)"/><path d="m291.588 168.679 23.796 41.22h47.598l23.799-41.22-23.799-41.22h-47.598z" style="display:inline;fill:url(#g);stroke:none;stroke-width:.529167;stroke-dasharray:none;stroke-opacity:1;filter:url(#h)"/><path d="m219.356 210.088 23.797 41.22h47.598l23.799-41.22-23.8-41.22h-47.597z" style="display:inline;fill:url(#i);stroke:none;stroke-width:.529167;stroke-dasharray:none;stroke-opacity:1;filter:url(#j)"/><path d="m212.596 111.034 23.797 41.22h47.598l23.798-41.22-23.798-41.221h-47.598z" style="display:inline;fill:url(#k);stroke:none;stroke-width:.529167;stroke-dasharray:none;stroke-opacity:1;filter:url(#l)"/><path d="m146.592 168.734 23.797 41.22h47.597l23.8-41.22-23.8-41.22H170.39z" style="display:inline;fill:url(#m);stroke:none;stroke-width:.529167;stroke-dasharray:none;stroke-opacity:1;filter:url(#n)"/></svg>