<?xml version="1.0" encoding="UTF-8" standalone="no"?>
<!-- Created with Inkscape (http://www.inkscape.org/) -->

<svg
   width="460.22818mm"
   height="672.36731mm"
   viewBox="0 0 460.22818 672.36731"
   version="1.1"
   id="svg1"
   xml:space="preserve"
   xmlns="http://www.w3.org/2000/svg"
   xmlns:svg="http://www.w3.org/2000/svg"><defs
     id="defs1" /><g
     id="layer1"
     style="display:inline"
     transform="translate(124.46371,205.07731)"><path
       id="path1-84-7"
       style="fill:#111214;fill-opacity:1;stroke:#000000;stroke-width:0.529167;stroke-dasharray:none;stroke-opacity:1"
       d="m 118.01562,300.45117 c -7.93229,13.73959 -15.86458,27.47917 -23.79687,41.21875 7.93294,13.73959 15.86589,27.47917 23.79883,41.21875 15.86523,0 31.73047,0 47.5957,0 7.93294,-13.73958 15.86589,-27.47916 23.79883,-41.21875 -7.93294,-13.74023 -15.86589,-27.48047 -23.79883,-41.2207 -15.86561,10e-4 -31.73339,-0.003 -47.59766,0.002 z" /><path
       id="path1-84-7-5"
       style="display:inline;fill:#1e1f21;fill-opacity:1;stroke:#000000;stroke-width:0.529167;stroke-dasharray:none;stroke-opacity:1"
       d="m 94.253906,425.80469 c 7.932944,13.74023 15.865884,27.48047 23.798824,41.2207 15.86589,0 31.73178,0 47.59766,0 7.93294,-13.74023 15.86589,-27.48047 23.79883,-41.2207 -7.93294,-13.74024 -15.86589,-27.48047 -23.79883,-41.22071 -15.86588,0 -31.73177,0 -47.59766,0 -7.93294,13.74024 -15.86588,27.48047 -23.798824,41.22071 z" /><path
       id="path1-84-5"
       style="fill:#111214;fill-opacity:1;stroke:#000000;stroke-width:0.529167;stroke-dasharray:none;stroke-opacity:1"
       d="m 167.17383,299.58984 c 7.93294,13.74024 15.86588,27.48047 23.79883,41.22071 15.86523,0 31.73047,0 47.5957,0 7.93294,-13.74024 15.86588,-27.48047 23.79883,-41.22071 -7.93295,-13.74023 -15.86589,-27.48046 -23.79883,-41.2207 -15.86524,0 -31.73047,0 -47.5957,0 -7.93295,13.74024 -15.86589,27.48047 -23.79883,41.2207 z" /><path
       id="path1-84"
       style="display:inline;fill:#1e1f21;fill-opacity:1;stroke:#000000;stroke-width:0.529167;stroke-dasharray:none;stroke-opacity:1"
       d="m 21.505859,299.67578 c 7.932943,13.74024 15.865886,27.48047 23.798829,41.2207 15.865885,0 31.73177,0 47.597656,0 7.932296,-13.74023 15.864586,-27.48046 23.796876,-41.2207 -7.93229,-13.74023 -15.86458,-27.48047 -23.796876,-41.2207 -15.865886,0 -31.731771,0 -47.597656,0 -7.932943,13.74023 -15.865886,27.48047 -23.798829,41.2207 z" /><path
       id="path1-84-6"
       style="display:inline;fill:#1e1f21;fill-opacity:1;stroke:#000000;stroke-width:0.529167;stroke-dasharray:none;stroke-opacity:1"
       d="m -51.279297,341.5918 c 7.932292,13.74023 15.864583,27.48047 23.796875,41.2207 15.865886,0 31.731771,0 47.597656,0 7.932943,-13.74023 15.865886,-27.48047 23.798828,-41.2207 -7.932942,-13.74024 -15.865885,-27.48047 -23.798828,-41.22071 -15.865885,0 -31.73177,0 -47.597656,0 -7.932292,13.74024 -15.864583,27.48047 -23.796875,41.22071 z" /><path
       id="path1-84-6-5"
       style="fill:#111214;fill-opacity:1;stroke:#000000;stroke-width:0.529167;stroke-dasharray:none;stroke-opacity:1"
       d="m -100.22266,342.60156 c -7.93229,13.73893 -15.86458,27.47787 -23.79687,41.2168 7.93294,13.74023 15.86588,27.48047 23.79883,41.2207 15.865231,0 31.730466,0 47.5957,0 7.932943,-13.74023 15.865885,-27.48047 23.798828,-41.2207 -7.932943,-13.73958 -15.865885,-27.47917 -23.798828,-41.21875 -15.865616,0.001 -31.733389,-0.003 -47.59766,0.002 z" /><path
       id="path1-84-6-5-8"
       style="display:inline;fill:#1e1f21;fill-opacity:1;stroke:#000000;stroke-width:0.529167;stroke-dasharray:none;stroke-opacity:1"
       d="m -51.421875,425.45117 c 7.932943,13.74024 15.865885,27.48047 23.798828,41.22071 15.865235,-10e-6 31.7304689,0 47.595703,0 7.932943,-13.74024 15.865886,-27.48047 23.798828,-41.22071 -7.932942,-13.74023 -15.865885,-27.48047 -23.798828,-41.2207 -15.8652341,0 -31.730469,0 -47.595703,0 -7.932943,13.74023 -15.865885,27.48047 -23.798828,41.2207 z" /><path
       id="path1-84-69"
       style="display:inline;fill:#1e1f21;fill-opacity:1;stroke:#000000;stroke-width:0.529167;stroke-dasharray:none;stroke-opacity:1"
       d="m 21.339844,383.75977 c 7.932291,13.74023 15.864583,27.48046 23.796875,41.2207 15.865885,0 31.731771,0 47.597656,0 7.932945,-13.74024 15.865885,-27.48047 23.798825,-41.2207 -7.93294,-13.74024 -15.86588,-27.48047 -23.798825,-41.22071 -15.865885,0 -31.731771,0 -47.597656,0 -7.932292,13.74024 -15.864584,27.48047 -23.796875,41.22071 z" /><path
       id="path1-84-7-9"
       style="display:inline;fill:#1e1f21;fill-opacity:1;stroke:#000000;stroke-width:0.529167;stroke-dasharray:none;stroke-opacity:1"
       d="m 167.2168,383.77734 c 7.93294,13.74024 15.86588,27.48047 23.79882,41.22071 15.86589,0 31.73178,0 47.59766,0 7.93294,-13.74024 15.86589,-27.48047 23.79883,-41.22071 -7.93294,-13.74023 -15.86589,-27.48047 -23.79883,-41.2207 -15.86588,0 -31.73177,0 -47.59766,0 -7.93294,13.74023 -15.86588,27.48047 -23.79882,41.2207 z" /><path
       id="path1-84-6-5-7"
       style="fill:#111214;fill-opacity:1;stroke:#000000;stroke-width:0.529167;stroke-dasharray:none;stroke-opacity:1"
       d="m -124.05469,299.71289 c 7.93229,13.74023 15.86459,27.48047 23.79688,41.2207 15.865883,0 31.731768,0 47.597654,0 7.932942,-13.74023 15.865885,-27.48046 23.798828,-41.2207 -7.932943,-13.74023 -15.865886,-27.48047 -23.798828,-41.2207 -15.865886,0 -31.731771,0 -47.597654,0 -7.93229,13.74023 -15.86459,27.48047 -23.79688,41.2207 z" /><path
       id="path1-84-6-58-0"
       style="fill:#111214;fill-opacity:1;stroke:#000000;stroke-width:0.529167;stroke-dasharray:none;stroke-opacity:1"
       d="m 264.0625,300.28516 c -7.93229,13.73958 -15.86458,27.47916 -23.79688,41.21875 7.93295,13.73958 15.86589,27.47916 23.79883,41.21875 15.86524,0 31.73047,0 47.59571,0 7.93294,-13.73959 15.86588,-27.47917 23.79882,-41.21875 -7.93294,-13.74024 -15.86588,-27.48047 -23.79882,-41.22071 -15.86562,10e-4 -31.73339,-0.003 -47.59766,0.002 z" /><path
       id="path1-84-6-5-8-8-56"
       style="fill:#111214;fill-opacity:1;stroke:#000000;stroke-width:0.529167;stroke-dasharray:none;stroke-opacity:1"
       d="m 240.12305,425.36133 c 7.93294,13.74023 15.86588,27.48047 23.79883,41.2207 15.86523,0 31.73046,0 47.5957,0 7.93294,-13.74023 15.86588,-27.48047 23.79883,-41.2207 -7.93295,-13.74024 -15.86589,-27.48047 -23.79883,-41.22071 -15.86524,0 -31.73047,10e-6 -47.5957,0 -7.93295,13.74024 -15.86589,27.48047 -23.79883,41.22071 z" /></g></svg>
