<svg xmlns="http://www.w3.org/2000/svg" xml:space="preserve" width="460.22818mm" height="672.36731mm" viewBox="0 0 460.22818 672.36731"><g style="display:inline"><path d="M118.016 300.451 94.219 341.67l23.799 41.219h47.595l23.8-41.22-23.8-41.22c-15.865.001-31.733-.003-47.597.002z" style="fill:#111214;fill-opacity:1;stroke:#000;stroke-width:.529167;stroke-dasharray:none;stroke-opacity:1" transform="translate(124.464 205.077)"/><path d="m94.254 425.805 23.799 41.22h47.597l23.8-41.22-23.8-41.221h-47.597z" style="display:inline;fill:#1e1f21;fill-opacity:1;stroke:#000;stroke-width:.529167;stroke-dasharray:none;stroke-opacity:1" transform="translate(124.464 205.077)"/><path d="m167.174 299.59 23.799 41.22h47.595l23.8-41.22-23.8-41.22h-47.595z" style="fill:#111214;fill-opacity:1;stroke:#000;stroke-width:.529167;stroke-dasharray:none;stroke-opacity:1" transform="translate(124.464 205.077)"/><path d="m21.506 299.676 23.799 41.22h47.597l23.797-41.22-23.797-41.22H45.305zm-72.786 41.916 23.798 41.22h47.597l23.8-41.22-23.8-41.22h-47.597z" style="display:inline;fill:#1e1f21;fill-opacity:1;stroke:#000;stroke-width:.529167;stroke-dasharray:none;stroke-opacity:1" transform="translate(124.464 205.077)"/><path d="m-100.223 342.602-23.797 41.216 23.8 41.221h47.595l23.799-41.22-23.799-41.22c-15.866.002-31.733-.002-47.598.003z" style="fill:#111214;fill-opacity:1;stroke:#000;stroke-width:.529167;stroke-dasharray:none;stroke-opacity:1" transform="translate(124.464 205.077)"/><path d="m-51.422 425.451 23.799 41.22h47.596l23.798-41.22-23.798-41.22h-47.596zM21.34 383.76l23.797 41.22h47.597l23.8-41.22-23.8-41.22H45.137zm145.877.017 23.799 41.221h47.597l23.8-41.22-23.8-41.221h-47.597z" style="display:inline;fill:#1e1f21;fill-opacity:1;stroke:#000;stroke-width:.529167;stroke-dasharray:none;stroke-opacity:1" transform="translate(124.464 205.077)"/><path d="m-124.055 299.713 23.797 41.22h47.598l23.799-41.22-23.8-41.22h-47.597zm388.118.572-23.797 41.219 23.798 41.219h47.596l23.799-41.22-23.799-41.22c-15.865.001-31.733-.003-47.598.002zm-23.94 125.076 23.799 41.221h47.596l23.798-41.22-23.798-41.221h-47.596z" style="fill:#111214;fill-opacity:1;stroke:#000;stroke-width:.529167;stroke-dasharray:none;stroke-opacity:1" transform="translate(124.464 205.077)"/></g></svg>