<svg xmlns="http://www.w3.org/2000/svg" width="454.28522" height="481.19827" viewBox="0 0 454.28521 481.19827"><defs><linearGradient id="b" x1="0" x2="1" y1="0" y2="0" gradientTransform="matrix(360.62991 0 0 -360.62991 103.15 290.087)" gradientUnits="userSpaceOnUse" spreadMethod="pad"><stop offset="0" style="stop-opacity:1;stop-color:#7776ff"/><stop offset="0.999359" style="stop-opacity:1;stop-color:#ae2cf1"/><stop offset="1" style="stop-opacity:1;stop-color:#ae2cf1"/></linearGradient><clipPath id="a" clipPathUnits="userSpaceOnUse"><path d="M110.62 151.181h481.2V632.38h-481.2z" style="fill:#000;stroke-width:2;paint-order:fill markers stroke"/></clipPath></defs><g clip-path="url(#a)" transform="translate(-137.533 -151.181)"><path d="m324.821 505.814.029-150.375v-1.294l-.03-.027v-28.953c18.312 26.093 48.598 43.21 82.774 43.221h56.186v18.123h-56.186c-23.169-.007-44.836-6.434-63.239-17.615l-.025 140.324a57.3 57.3 0 0 1-19.509-3.404m-37.915-54.019v-83.059l.153-.376c.148-29.248.053-91.359-.083-100.747h-.006c0-9.791-2.27-19.117-6.311-27.46a194 194 0 0 1 4.434-2.885c1.994-1.256 4.165-2.225 6.197-3.426a20.6 20.6 0 0 0 3.236-2.376c.977-.875.969-2.375.174-3.42-1.953-2.57-4.458-3.534-7.711-3.128-4.786.598-9.474 1.559-14.028 3.075-11.596-14.461-29.342-23.832-49.221-23.832-20.791 0-39.233 9.972-50.743 25.354-.938-.496-1.881-.983-2.812-1.49-3.032-1.647-5.976-3.455-8.947-5.212-1.058-.626-2.106-1.157-3.342-.505-1.485.784-2.364 1.999-2.564 3.676-.349 2.925.904 5.218 2.827 7.277 1.758 1.882 3.333 3.953 5.217 5.695.872.808 1.779 1.578 2.677 2.358a62 62 0 0 0-5.479 25.529c0 32.951 25.626 59.943 58.177 62.469-.047 6.35-.354 11.725-.318 14.258.036 2.486 2.342 3.891 4.74 3 2.598-.966 4.315-2.039 5.608-4.398 1.718-3.132 2.458-7.352 3.13-10.792.159-.811.284-1.628.429-2.443 17.471-2.326 32.682-11.623 42.582-25.031v27.624c-14.096 10.97-31.879 17.504-51.182 17.504-45.588 0-82.677-36.871-82.677-82.191s37.089-82.191 82.677-82.191 82.74 37.641 82.74 82.961h.011c.036 7.981-.017 91.65-.017 91.65l-.058.06v135.581c-11.956-10.524-19.51-25.93-19.51-43.109M103.15 266.843c0-65.984 54.096-119.665 120.59-119.665s120.654 54.144 120.654 120.127l-.001.464h.013c.25 34.664 28.472 61.739 63.188 61.756h56.186v19.509h-56.186c-25.32-.009-48.029-10.202-63.218-28.322-12.056-14.383-19.381-32.868-19.492-52.943v-.464c0-55.225-45.408-100.617-101.144-100.617s-101.081 44.929-101.081 100.155c0 10.403 1.61 20.44 4.595 29.881h-.224c12.628 41.431 51.202 71.662 96.71 71.662 15.768 0 34.345-5.376 50.482-14.532v21.632c-15.367 7.063-32.464 11.023-50.482 11.023-66.494 0-120.59-53.682-120.59-119.666m115.601 62.469c.042-5.613-.119-11.984-.908-17.859-.279-2.081-.85-4.13-1.004-6.214-1.422-16.95.559-27.641.828-29.997.411-3.6-1.614-6.565-5.16-7.889-8.823-3.293-17.417-7.092-25.634-11.712-5.065-2.849-10.199-5.598-14.753-9.25a196 196 0 0 1-6.067-5.077 62.5 62.5 0 0 1 6.944-11.799 295 295 0 0 0 8.646 4.421c2.279 1.113 18.071 6.202 37.746 21.148 2.536 1.934 4.708 2.181 7.375.577.913-.548 1.732-1.257 2.57-1.922 3.116-2.469 6.086-5.149 9.36-7.387 7.551-5.163 15.138-10.304 23.55-14.03 2.91-1.289 5.836-2.554 8.818-3.661q.946-.35 1.899-.668a64 64 0 0 1 7.698 12.16 237 237 0 0 0-4.855 3.332c-4.391 3.1-8.708 6.302-13.069 9.444-4.772 3.437-9.638 6.745-14.903 9.381-2.481 1.242-5.144 2.121-7.729 3.154-2.01.804-4.182 1.238-5.936 2.617-1.802 1.417-2.702 3.254-2.368 5.55.434 2.985 1.036 5.947 1.431 8.937.397 2.998.745 6.013.907 9.031.246 4.578.311 9.167.453 13.75-.074.001-.154 4.004-.24 6-.119 2.757-.223 5.527-.57 8.262a187 187 0 0 1-1.44 9.326 65 65 0 0 1-8.6.588c-1.681 0-3.341-.084-4.989-.213m4.38-66.241a2.863 2.863 0 1 0 2.299 5.245 2.865 2.865 0 0 0-1.151-5.487c-.384 0-.774.078-1.148.242m63.833 4.542h.006a.2.2 0 0 1-.002.046zm-.006 0c0-.08.003-.04.006 0zm67.189-1.694-.057-7.905h-.271c-.28-3.92-.743-7.789-1.365-11.606h107.92a57.3 57.3 0 0 1 3.406 19.511zm-6.104-37.915c-5.008-15.675-12.926-30.07-23.122-42.549V85.271c11.955 10.523 19.509 25.929 19.509 43.11v80.113h61.925c17.18 0 32.587 7.554 43.11 19.51zm-61.037-74.237V70.956a57.3 57.3 0 0 1 19.51 3.406v92.661a131 131 0 0 0-19.51-13.256" style="fill:url(#b);stroke:none" transform="matrix(1.33333 0 0 -1.33333 0 755.905)"/></g></svg>