<?xml version="1.0" encoding="UTF-8" standalone="no"?>
<!-- Created with Inkscape (http://www.inkscape.org/) -->

<svg
   version="1.1"
   id="svg1"
   width="755.90533"
   height="755.90533"
   viewBox="0 0 755.90533 755.90533"
   xmlns="http://www.w3.org/2000/svg"
   xmlns:svg="http://www.w3.org/2000/svg">
  <defs
     id="defs1">
    <linearGradient
       x1="0"
       y1="0"
       x2="1"
       y2="0"
       gradientUnits="userSpaceOnUse"
       gradientTransform="matrix(360.62991,0,0,-360.62991,103.1496,290.08725)"
       spreadMethod="pad"
       id="linearGradient3">
      <stop
         style="stop-opacity:1;stop-color:#7776ff"
         offset="0"
         id="stop1" />
      <stop
         style="stop-opacity:1;stop-color:#ae2cf1"
         offset="0.999359"
         id="stop2" />
      <stop
         style="stop-opacity:1;stop-color:#ae2cf1"
         offset="1"
         id="stop3" />
    </linearGradient>
  </defs>
  <g
     id="layer-MC0">
    <path
       id="path3"
       d="m 324.821,505.814 0.029,-150.375 v -1.294 c -0.01,-0.009 -0.02,-0.017 -0.03,-0.027 v 0 -28.953 c 18.312,26.093 48.598,43.21 82.774,43.221 v 0 h 56.186 v 18.123 h -56.186 c -23.169,-0.007 -44.836,-6.434 -63.239,-17.615 v 0 l -0.025,140.324 c -6.85,0 -13.418,-1.204 -19.509,-3.404 m -37.915,-54.019 v -65.286 -17.773 c 0,0 0.055,-0.136 0.153,-0.376 v 0 c 0.148,-29.248 0.053,-91.359 -0.083,-100.747 v 0 h -0.006 c 0,-9.791 -2.27,-19.117 -6.311,-27.46 v 0 c 1.466,-0.981 2.943,-1.945 4.434,-2.885 v 0 c 1.994,-1.256 4.165,-2.225 6.197,-3.426 v 0 c 1.148,-0.678 2.242,-1.487 3.236,-2.376 v 0 c 0.977,-0.875 0.969,-2.375 0.174,-3.42 v 0 c -1.953,-2.57 -4.458,-3.534 -7.711,-3.128 v 0 c -4.786,0.598 -9.474,1.559 -14.028,3.075 v 0 C 261.365,213.532 243.619,204.161 223.74,204.161 v 0 c -20.791,0 -39.233,9.972 -50.743,25.354 v 0 c -0.938,-0.496 -1.881,-0.983 -2.812,-1.49 v 0 c -3.032,-1.647 -5.976,-3.455 -8.947,-5.212 v 0 c -1.058,-0.626 -2.106,-1.157 -3.342,-0.505 v 0 c -1.485,0.784 -2.364,1.999 -2.564,3.676 v 0 c -0.349,2.925 0.904,5.218 2.827,7.277 v 0 c 1.758,1.882 3.333,3.953 5.217,5.695 v 0 c 0.872,0.808 1.779,1.578 2.677,2.358 v 0 c -3.511,7.801 -5.479,16.434 -5.479,25.529 v 0 c 0,32.951 25.626,59.943 58.177,62.469 v 0 c -0.047,6.35 -0.354,11.725 -0.318,14.258 v 0 c 0.036,2.486 2.342,3.891 4.74,3 v 0 c 2.598,-0.966 4.315,-2.039 5.608,-4.398 v 0 c 1.718,-3.132 2.458,-7.352 3.13,-10.792 v 0 c 0.159,-0.811 0.284,-1.628 0.429,-2.443 v 0 c 17.471,-2.326 32.682,-11.623 42.582,-25.031 v 0 27.624 c -14.096,10.97 -31.879,17.504 -51.182,17.504 v 0 c -45.588,0 -82.677,-36.871 -82.677,-82.191 v 0 c 0,-45.321 37.089,-82.191 82.677,-82.191 v 0 c 45.588,0 82.74,37.641 82.74,82.961 v 0 h 0.011 c 0.036,7.981 -0.017,91.65 -0.017,91.65 v 0 l -0.058,0.06 v 135.581 c -11.956,-10.524 -19.51,-25.93 -19.51,-43.109 M 103.15,266.843 c 0,-65.984 54.096,-119.665 120.59,-119.665 v 0 c 66.494,0 120.654,54.144 120.654,120.127 v 0 l -0.001,0.464 h 0.013 c 0.25,34.664 28.472,61.739 63.188,61.756 v 0 h 56.186 v 19.509 h -56.186 c -25.32,-0.009 -48.029,-10.202 -63.218,-28.322 v 0 C 332.32,306.329 324.995,287.844 324.884,267.769 v 0 -0.464 c 0,-55.225 -45.408,-100.617 -101.144,-100.617 v 0 c -55.736,0 -101.081,44.929 -101.081,100.155 v 0 c 0,10.403 1.61,20.44 4.595,29.881 v 0 h -0.224 c 12.628,41.431 51.202,71.662 96.71,71.662 v 0 c 15.768,0 34.345,-5.376 50.482,-14.532 v 0 21.632 c -15.367,7.063 -32.464,11.023 -50.482,11.023 v 0 c -66.494,0 -120.59,-53.682 -120.59,-119.666 m 115.601,62.469 c 0.042,-5.613 -0.119,-11.984 -0.908,-17.859 v 0 c -0.279,-2.081 -0.85,-4.13 -1.004,-6.214 v 0 c -1.422,-16.95 0.559,-27.641 0.828,-29.997 v 0 c 0.411,-3.6 -1.614,-6.565 -5.16,-7.889 v 0 c -8.823,-3.293 -17.417,-7.092 -25.634,-11.712 v 0 c -5.065,-2.849 -10.199,-5.598 -14.753,-9.25 v 0 c -2.056,-1.649 -4.078,-3.345 -6.067,-5.077 v 0 c 1.888,-4.195 4.215,-8.152 6.944,-11.799 v 0 c 2.861,1.516 5.739,3.001 8.646,4.421 v 0 c 2.279,1.113 18.071,6.202 37.746,21.148 v 0 c 2.536,1.934 4.708,2.181 7.375,0.577 v 0 c 0.913,-0.548 1.732,-1.257 2.57,-1.922 v 0 c 3.116,-2.469 6.086,-5.149 9.36,-7.387 v 0 c 7.551,-5.163 15.138,-10.304 23.55,-14.03 v 0 c 2.91,-1.289 5.836,-2.554 8.818,-3.661 v 0 c 0.63,-0.234 1.264,-0.456 1.899,-0.668 v 0 c 2.999,3.739 5.593,7.813 7.698,12.16 v 0 c -1.632,1.091 -3.251,2.201 -4.855,3.332 v 0 c -4.391,3.1 -8.708,6.302 -13.069,9.444 v 0 c -4.772,3.437 -9.638,6.745 -14.903,9.381 v 0 c -2.481,1.242 -5.144,2.121 -7.729,3.154 v 0 c -2.01,0.804 -4.182,1.238 -5.936,2.617 v 0 c -1.802,1.417 -2.702,3.254 -2.368,5.55 v 0 c 0.434,2.985 1.036,5.947 1.431,8.937 v 0 c 0.397,2.998 0.745,6.013 0.907,9.031 v 0 c 0.246,4.578 0.311,9.167 0.453,13.75 v 0 c -0.074,0.001 -0.154,4.004 -0.24,6 v 0 c -0.119,2.757 -0.223,5.527 -0.57,8.262 v 0 c -0.397,3.119 -0.886,6.23 -1.44,9.326 v 0 c -2.814,0.376 -5.681,0.588 -8.6,0.588 v 0 c -1.681,0 -3.341,-0.084 -4.989,-0.213 m 4.38,-66.241 c -1.448,0.634 -2.108,2.324 -1.474,3.772 v 0 c 0.636,1.449 2.324,2.109 3.773,1.473 v 0 c 1.448,-0.634 2.108,-2.324 1.474,-3.772 v 0 c -0.472,-1.075 -1.522,-1.715 -2.625,-1.715 v 0 c -0.384,0 -0.774,0.078 -1.148,0.242 m 63.833,4.542 h 0.006 c 0,0.034 -0.001,0.046 -0.002,0.046 v 0 c -0.001,0 -0.002,-0.023 -0.004,-0.046 m -0.006,0 c 0,-0.08 0.003,-0.04 0.006,0 v 0 z m 67.189,-1.694 -0.057,-7.905 h -0.271 c -0.28,-3.92 -0.743,-7.789 -1.365,-11.606 v 0 h 107.92 c 2.201,6.092 3.406,12.66 3.406,19.511 v 0 z m -6.104,-37.915 c -5.008,-15.675 -12.926,-30.07 -23.122,-42.549 v 0 -100.184 c 11.955,10.523 19.509,25.929 19.509,43.11 v 0 80.113 h 61.925 c 17.18,0 32.587,7.554 43.11,19.51 v 0 z M 287.006,153.767 V 70.956 c 6.851,0 13.418,1.205 19.51,3.406 v 0 92.661 c -6.07,-4.979 -12.598,-9.42 -19.51,-13.256"
       transform="matrix(1.3333333,0,0,-1.3333333,0,755.90533)"
       style="fill:url(#linearGradient3);stroke:none" />
  </g>
</svg>
