<svg xmlns="http://www.w3.org/2000/svg" width="410" height="404" fill="none" viewBox="0 0 410 404"><path fill="url(#a)" d="m399.641 59.525-183.998 329.02c-3.799 6.793-13.559 6.833-17.415.073L10.582 59.556C6.38 52.19 12.68 43.266 21.028 44.76l184.195 32.923c1.175.21 2.378.208 3.553-.006l180.343-32.87c8.32-1.517 14.649 7.337 10.522 14.719"/><defs><linearGradient id="a" x1="6.00017" x2="235" y1="32.9999" y2="344" gradientUnits="userSpaceOnUse"><stop stop-color="#41D1FF"/><stop offset="1" stop-color="#BD34FE"/></linearGradient><linearGradient id="b" x1="194.651" x2="236.076" y1="8.81818" y2="292.989" gradientUnits="userSpaceOnUse"><stop stop-color="#FFEA83"/><stop offset="0.0833333" stop-color="#FFDD35"/><stop offset="1" stop-color="#FFA800"/></linearGradient></defs><path fill="url(#b)" d="M292.965 1.574 156.801 28.255a5 5 0 0 0-4.03 4.611l-8.376 141.464c-.197 3.332 2.863 5.918 6.115 5.168l37.91-8.749c3.547-.818 6.752 2.306 6.023 5.873l-11.263 55.153c-.758 3.712 2.727 6.886 6.352 5.785l23.415-7.114c3.63-1.102 7.118 2.081 6.35 5.796l-17.899 86.633c-1.12 5.419 6.088 8.374 9.094 3.728l2.008-3.103 110.954-221.428c1.858-3.707-1.346-7.935-5.418-7.15l-39.022 7.532c-3.667.707-6.787-2.708-5.752-6.296l25.469-88.291c1.036-3.594-2.095-7.012-5.766-6.293"/><path fill="#3d3d3d" d="m1436.62 603.304 56.39-142.599h162.82l-77.27-216.315L1675.2 0 1952 734.934h-204.13l-47.3-131.629z" style="fill:#3e3e3e;fill-opacity:1" transform="matrix(.1579 0 0 .1589 54.893 275.216)"/><path fill="#5a0fc8" d="M1262.47 734.935 1558.79.002h-196.45l-202.7 474.931L1015.5.003H864.499l-154.768 474.93-109.146-216.416-98.773 304.302 100.284 172.116h193.331l139.857-425.91 133.346 425.91z" style="fill:#2e859c;fill-opacity:1" transform="matrix(.1579 0 0 .1589 54.893 275.216)"/><path fill="#3d3d3d" d="M186.476 482.643h121.003q54.981 0 97.917-12.273l31.293-96.408 87.459-269.446q-9.996-15.844-22.824-29.96Q433.967 0 304.222 0H0v734.933h186.476Zm160.166-313.564q26.31 26.479 26.309 70.871 0 44.733-23.138 70.956-25.365 29.137-93.409 29.137h-69.928V142.598h70.442q63.415 0 89.724 26.481" style="fill:#3e3e3e;fill-opacity:1" transform="matrix(.1579 0 0 .1589 54.893 275.216)"/></svg>