<?xml version="1.0" encoding="UTF-8" standalone="no"?>
<!-- Created with Inkscape (http://www.inkscape.org/) -->

<svg
   width="460.22818mm"
   height="1850.701mm"
   viewBox="0 0 460.22818 1850.701"
   version="1.1"
   id="svg1"
   xml:space="preserve"
   xmlns:xlink="http://www.w3.org/1999/xlink"
   xmlns="http://www.w3.org/2000/svg"
   xmlns:svg="http://www.w3.org/2000/svg"><defs
     id="defs1"><linearGradient
       id="linearGradient6"><stop
         style="stop-color:#3a3f42;stop-opacity:1;"
         offset="0"
         id="stop66" /><stop
         style="stop-color:#2b2f32;stop-opacity:1;"
         offset="1"
         id="stop67" /></linearGradient><linearGradient
       xlink:href="#linearGradient6"
       id="linearGradient7"
       x1="101.44505"
       y1="-74.962181"
       x2="168.23807"
       y2="-115.78767"
       gradientUnits="userSpaceOnUse"
       gradientTransform="translate(123.13244,204.63356)" /><filter
       style="color-interpolation-filters:sRGB"
       id="filter61"
       x="-0.33615792"
       y="-0.38815442"
       width="1.6818369"
       height="2.2490422"><feFlood
         result="flood"
         in="SourceGraphic"
         flood-opacity="1.000000"
         flood-color="rgb(0,0,0)"
         id="feFlood60" /><feGaussianBlur
         result="blur"
         in="SourceGraphic"
         stdDeviation="6.666667"
         id="feGaussianBlur60" /><feOffset
         result="offset"
         in="blur"
         dx="0.453172"
         dy="19.486404"
         id="feOffset60" /><feComposite
         result="comp1"
         operator="in"
         in="flood"
         in2="offset"
         id="feComposite60" /><feComposite
         result="fbSourceGraphic"
         operator="over"
         in="SourceGraphic"
         in2="comp1"
         id="feComposite61" /><feColorMatrix
         result="fbSourceGraphicAlpha"
         in="fbSourceGraphic"
         values="0 0 0 -1 0 0 0 0 -1 0 0 0 0 -1 0 0 0 0 1 0"
         id="feColorMatrix61" /><feFlood
         id="feFlood61"
         result="flood"
         in="fbSourceGraphic"
         flood-opacity="1.000000"
         flood-color="rgb(0,0,0)" /><feGaussianBlur
         id="feGaussianBlur61"
         result="blur"
         in="fbSourceGraphic"
         stdDeviation="6.666667" /><feOffset
         id="feOffset61"
         result="offset"
         in="blur"
         dx="0.453172"
         dy="19.486404" /><feComposite
         id="feComposite62"
         result="comp1"
         operator="in"
         in="flood"
         in2="offset" /><feComposite
         id="feComposite63"
         result="comp2"
         operator="over"
         in="fbSourceGraphic"
         in2="comp1" /></filter><filter
       style="color-interpolation-filters:sRGB"
       id="filter61-8"
       x="-0.33615788"
       y="-0.38815442"
       width="1.6818368"
       height="2.2490422"><feFlood
         result="flood"
         in="SourceGraphic"
         flood-opacity="1.000000"
         flood-color="rgb(0,0,0)"
         id="feFlood60-6" /><feGaussianBlur
         result="blur"
         in="SourceGraphic"
         stdDeviation="6.666667"
         id="feGaussianBlur60-2" /><feOffset
         result="offset"
         in="blur"
         dx="0.453172"
         dy="19.486404"
         id="feOffset60-5" /><feComposite
         result="comp1"
         operator="in"
         in="flood"
         in2="offset"
         id="feComposite60-1" /><feComposite
         result="fbSourceGraphic"
         operator="over"
         in="SourceGraphic"
         in2="comp1"
         id="feComposite61-3" /><feColorMatrix
         result="fbSourceGraphicAlpha"
         in="fbSourceGraphic"
         values="0 0 0 -1 0 0 0 0 -1 0 0 0 0 -1 0 0 0 0 1 0"
         id="feColorMatrix61-9" /><feFlood
         id="feFlood61-7"
         result="flood"
         in="fbSourceGraphic"
         flood-opacity="1.000000"
         flood-color="rgb(0,0,0)" /><feGaussianBlur
         id="feGaussianBlur61-3"
         result="blur"
         in="fbSourceGraphic"
         stdDeviation="6.666667" /><feOffset
         id="feOffset61-7"
         result="offset"
         in="blur"
         dx="0.453172"
         dy="19.486404" /><feComposite
         id="feComposite62-5"
         result="comp1"
         operator="in"
         in="flood"
         in2="offset" /><feComposite
         id="feComposite63-0"
         result="comp2"
         operator="over"
         in="fbSourceGraphic"
         in2="comp1" /></filter><linearGradient
       xlink:href="#linearGradient6"
       id="linearGradient63"
       gradientUnits="userSpaceOnUse"
       gradientTransform="translate(57.128205,262.33415)"
       x1="101.44505"
       y1="-74.962181"
       x2="168.23807"
       y2="-115.78767" /><filter
       style="color-interpolation-filters:sRGB"
       id="filter61-5"
       x="-0.33615792"
       y="-0.38815442"
       width="1.6818369"
       height="2.2490422"><feFlood
         result="flood"
         in="SourceGraphic"
         flood-opacity="1.000000"
         flood-color="rgb(0,0,0)"
         id="feFlood60-8" /><feGaussianBlur
         result="blur"
         in="SourceGraphic"
         stdDeviation="6.666667"
         id="feGaussianBlur60-5" /><feOffset
         result="offset"
         in="blur"
         dx="0.453172"
         dy="19.486404"
         id="feOffset60-6" /><feComposite
         result="comp1"
         operator="in"
         in="flood"
         in2="offset"
         id="feComposite60-7" /><feComposite
         result="fbSourceGraphic"
         operator="over"
         in="SourceGraphic"
         in2="comp1"
         id="feComposite61-9" /><feColorMatrix
         result="fbSourceGraphicAlpha"
         in="fbSourceGraphic"
         values="0 0 0 -1 0 0 0 0 -1 0 0 0 0 -1 0 0 0 0 1 0"
         id="feColorMatrix61-4" /><feFlood
         id="feFlood61-1"
         result="flood"
         in="fbSourceGraphic"
         flood-opacity="1.000000"
         flood-color="rgb(0,0,0)" /><feGaussianBlur
         id="feGaussianBlur61-6"
         result="blur"
         in="fbSourceGraphic"
         stdDeviation="6.666667" /><feOffset
         id="feOffset61-1"
         result="offset"
         in="blur"
         dx="0.453172"
         dy="19.486404" /><feComposite
         id="feComposite62-2"
         result="comp1"
         operator="in"
         in="flood"
         in2="offset" /><feComposite
         id="feComposite63-04"
         result="comp2"
         operator="over"
         in="fbSourceGraphic"
         in2="comp1" /></filter><linearGradient
       xlink:href="#linearGradient6"
       id="linearGradient64"
       gradientUnits="userSpaceOnUse"
       gradientTransform="translate(129.89259,303.68812)"
       x1="101.44505"
       y1="-74.962181"
       x2="168.23807"
       y2="-115.78767" /><filter
       style="color-interpolation-filters:sRGB"
       id="filter61-9"
       x="-0.33615792"
       y="-0.38815442"
       width="1.6818369"
       height="2.2490422"><feFlood
         result="flood"
         in="SourceGraphic"
         flood-opacity="1.000000"
         flood-color="rgb(0,0,0)"
         id="feFlood60-0" /><feGaussianBlur
         result="blur"
         in="SourceGraphic"
         stdDeviation="6.666667"
         id="feGaussianBlur60-55" /><feOffset
         result="offset"
         in="blur"
         dx="0.453172"
         dy="19.486404"
         id="feOffset60-63" /><feComposite
         result="comp1"
         operator="in"
         in="flood"
         in2="offset"
         id="feComposite60-2" /><feComposite
         result="fbSourceGraphic"
         operator="over"
         in="SourceGraphic"
         in2="comp1"
         id="feComposite61-6" /><feColorMatrix
         result="fbSourceGraphicAlpha"
         in="fbSourceGraphic"
         values="0 0 0 -1 0 0 0 0 -1 0 0 0 0 -1 0 0 0 0 1 0"
         id="feColorMatrix61-8" /><feFlood
         id="feFlood61-9"
         result="flood"
         in="fbSourceGraphic"
         flood-opacity="1.000000"
         flood-color="rgb(0,0,0)" /><feGaussianBlur
         id="feGaussianBlur61-1"
         result="blur"
         in="fbSourceGraphic"
         stdDeviation="6.666667" /><feOffset
         id="feOffset61-4"
         result="offset"
         in="blur"
         dx="0.453172"
         dy="19.486404" /><feComposite
         id="feComposite62-8"
         result="comp1"
         operator="in"
         in="flood"
         in2="offset" /><feComposite
         id="feComposite63-8"
         result="comp2"
         operator="over"
         in="fbSourceGraphic"
         in2="comp1" /></filter><linearGradient
       xlink:href="#linearGradient6"
       id="linearGradient65"
       gradientUnits="userSpaceOnUse"
       gradientTransform="translate(202.12384,262.27885)"
       x1="101.44505"
       y1="-74.962181"
       x2="168.23807"
       y2="-115.78767" /><filter
       style="color-interpolation-filters:sRGB"
       id="filter61-95"
       x="-0.3361579"
       y="-0.38815442"
       width="1.6818369"
       height="2.2490422"><feFlood
         result="flood"
         in="SourceGraphic"
         flood-opacity="1.000000"
         flood-color="rgb(0,0,0)"
         id="feFlood60-9" /><feGaussianBlur
         result="blur"
         in="SourceGraphic"
         stdDeviation="6.666667"
         id="feGaussianBlur60-0" /><feOffset
         result="offset"
         in="blur"
         dx="0.453172"
         dy="19.486404"
         id="feOffset60-9" /><feComposite
         result="comp1"
         operator="in"
         in="flood"
         in2="offset"
         id="feComposite60-3" /><feComposite
         result="fbSourceGraphic"
         operator="over"
         in="SourceGraphic"
         in2="comp1"
         id="feComposite61-4" /><feColorMatrix
         result="fbSourceGraphicAlpha"
         in="fbSourceGraphic"
         values="0 0 0 -1 0 0 0 0 -1 0 0 0 0 -1 0 0 0 0 1 0"
         id="feColorMatrix61-0" /><feFlood
         id="feFlood61-75"
         result="flood"
         in="fbSourceGraphic"
         flood-opacity="1.000000"
         flood-color="rgb(0,0,0)" /><feGaussianBlur
         id="feGaussianBlur61-7"
         result="blur"
         in="fbSourceGraphic"
         stdDeviation="6.666667" /><feOffset
         id="feOffset61-5"
         result="offset"
         in="blur"
         dx="0.453172"
         dy="19.486404" /><feComposite
         id="feComposite62-0"
         result="comp1"
         operator="in"
         in="flood"
         in2="offset" /><feComposite
         id="feComposite63-6"
         result="comp2"
         operator="over"
         in="fbSourceGraphic"
         in2="comp1" /></filter><linearGradient
       xlink:href="#linearGradient6"
       id="linearGradient66"
       gradientUnits="userSpaceOnUse"
       gradientTransform="translate(-2.7460602,310.1839)"
       x1="101.44505"
       y1="-74.962181"
       x2="168.23807"
       y2="-115.78767" /><linearGradient
       xlink:href="#linearGradient6"
       id="linearGradient69"
       x1="-51.688328"
       y1="-79.268669"
       x2="44.116055"
       y2="-79.268669"
       gradientUnits="userSpaceOnUse" /><linearGradient
       xlink:href="#linearGradient6"
       id="linearGradient71"
       x1="21.098783"
       y1="-121.18468"
       x2="116.90317"
       y2="-121.18468"
       gradientUnits="userSpaceOnUse" /><linearGradient
       xlink:href="#linearGradient6"
       id="linearGradient73"
       x1="166.7648"
       y1="-121.27062"
       x2="262.57114"
       y2="-121.27062"
       gradientUnits="userSpaceOnUse" /></defs><g
     id="layer1"
     style="display:inline"
     transform="translate(124.46371,205.07731)"><path
       id="path1-84-7"
       style="fill:#111214;fill-opacity:1;stroke:#000000;stroke-width:0.529167;stroke-dasharray:none;stroke-opacity:1"
       d="m 118.01562,1478.7849 c -7.93229,13.7396 -15.86458,27.4792 -23.79687,41.2188 7.93294,13.7396 15.86589,27.4791 23.79883,41.2187 15.86523,0 31.73047,0 47.5957,0 7.93294,-13.7396 15.86589,-27.4791 23.79883,-41.2187 -7.93294,-13.7403 -15.86589,-27.4805 -23.79883,-41.2207 -15.86561,0 -31.73339,0 -47.59766,0 z" /><path
       id="path1-84-7-5"
       style="display:inline;fill:#1e1f21;fill-opacity:1;stroke:#000000;stroke-width:0.529167;stroke-dasharray:none;stroke-opacity:1"
       d="m 94.253906,1604.1384 c 7.932944,13.7403 15.865884,27.4805 23.798824,41.2207 15.86589,0 31.73178,0 47.59766,0 7.93294,-13.7402 15.86589,-27.4804 23.79883,-41.2207 -7.93294,-13.7402 -15.86589,-27.4804 -23.79883,-41.2207 -15.86588,0 -31.73177,0 -47.59766,0 -7.93294,13.7403 -15.86588,27.4805 -23.798824,41.2207 z" /><path
       id="path1-84-8"
       style="fill:#111214;fill-opacity:1;stroke:#000000;stroke-width:0.529167;stroke-dasharray:none;stroke-opacity:1"
       d="m 94.285156,1435.9627 c 7.932944,13.7402 15.865884,27.4804 23.798824,41.2207 15.86589,0 31.73178,0 47.59766,0 7.93294,-13.7403 15.86589,-27.4805 23.79883,-41.2207 -7.93294,-13.7403 -15.86589,-27.4805 -23.79883,-41.2207 -15.86588,0 -31.73177,0 -47.59766,0 -7.93294,13.7402 -15.86588,27.4804 -23.798824,41.2207 z" /><path
       id="path1-84-5"
       style="fill:#111214;fill-opacity:1;stroke:#000000;stroke-width:0.529167;stroke-dasharray:none;stroke-opacity:1"
       d="m 167.17383,1477.9236 c 7.93294,13.7402 15.86588,27.4805 23.79883,41.2207 15.86523,0 31.73047,0 47.5957,0 7.93294,-13.7402 15.86588,-27.4805 23.79883,-41.2207 -7.93295,-13.7402 -15.86589,-27.4805 -23.79883,-41.2207 -15.86524,0 -31.73047,0 -47.5957,0 -7.93295,13.7402 -15.86589,27.4805 -23.79883,41.2207 z" /><path
       id="path1-84"
       style="display:inline;fill:#1e1f21;fill-opacity:1;stroke:#000000;stroke-width:0.529167;stroke-dasharray:none;stroke-opacity:1"
       d="m 21.505859,1478.0095 c 7.932943,13.7403 15.865886,27.4805 23.798829,41.2207 15.865885,0 31.73177,0 47.597656,0 7.932296,-13.7402 15.864586,-27.4804 23.796876,-41.2207 -7.93229,-13.7402 -15.86458,-27.4804 -23.796876,-41.2207 -15.865886,0 -31.731771,0 -47.597656,0 -7.932943,13.7403 -15.865886,27.4805 -23.798829,41.2207 z" /><path
       id="path1-84-6"
       style="display:inline;fill:#1e1f21;fill-opacity:1;stroke:#000000;stroke-width:0.529167;stroke-dasharray:none;stroke-opacity:1"
       d="m -51.279297,1519.9256 c 7.932292,13.7402 15.864583,27.4804 23.796875,41.2207 15.865886,0 31.731771,0 47.597656,0 7.932943,-13.7403 15.865886,-27.4805 23.798828,-41.2207 -7.932942,-13.7403 -15.865885,-27.4805 -23.798828,-41.2208 -15.865885,0 -31.73177,0 -47.597656,0 -7.932292,13.7403 -15.864583,27.4805 -23.796875,41.2208 z" /><path
       id="path1-84-6-5"
       style="fill:#111214;fill-opacity:1;stroke:#000000;stroke-width:0.529167;stroke-dasharray:none;stroke-opacity:1"
       d="m -100.22266,1520.9353 c -7.93229,13.7389 -15.86458,27.4779 -23.79687,41.2168 7.93294,13.7402 15.86588,27.4805 23.79883,41.2207 15.865231,0 31.730466,0 47.5957,0 7.932943,-13.7402 15.865885,-27.4805 23.798828,-41.2207 -7.932943,-13.7396 -15.865885,-27.4792 -23.798828,-41.2187 -15.865616,0 -31.733389,0 -47.59766,0 z" /><path
       id="path1-84-6-5-8"
       style="display:inline;fill:#1e1f21;fill-opacity:1;stroke:#000000;stroke-width:0.529167;stroke-dasharray:none;stroke-opacity:1"
       d="m -51.421875,1603.7849 c 7.932943,13.7403 15.865885,27.4805 23.798828,41.2207 15.865235,0 31.7304689,0 47.595703,0 7.932943,-13.7402 15.865886,-27.4804 23.798828,-41.2207 -7.932942,-13.7402 -15.865885,-27.4804 -23.798828,-41.2207 -15.8652341,0 -31.730469,0 -47.595703,0 -7.932943,13.7403 -15.865885,27.4805 -23.798828,41.2207 z" /><path
       id="path1-84-69"
       style="display:inline;fill:#1e1f21;fill-opacity:1;stroke:#000000;stroke-width:0.529167;stroke-dasharray:none;stroke-opacity:1"
       d="m 21.339844,1562.0935 c 7.932291,13.7403 15.864583,27.4805 23.796875,41.2207 15.865885,0 31.731771,0 47.597656,0 7.932945,-13.7402 15.865885,-27.4804 23.798825,-41.2207 -7.93294,-13.7402 -15.86588,-27.4804 -23.798825,-41.2207 -15.865885,0 -31.731771,0 -47.597656,0 -7.932292,13.7403 -15.864584,27.4805 -23.796875,41.2207 z" /><path
       id="path1-84-7-9"
       style="display:inline;fill:#1e1f21;fill-opacity:1;stroke:#000000;stroke-width:0.529167;stroke-dasharray:none;stroke-opacity:1"
       d="m 167.2168,1562.1111 c 7.93294,13.7402 15.86588,27.4805 23.79882,41.2207 15.86589,0 31.73178,0 47.59766,0 7.93294,-13.7402 15.86589,-27.4805 23.79883,-41.2207 -7.93294,-13.7402 -15.86589,-27.4805 -23.79883,-41.2207 -15.86588,0 -31.73177,0 -47.59766,0 -7.93294,13.7402 -15.86588,27.4805 -23.79882,41.2207 z" /><path
       id="path1-84-6-5-2"
       style="fill:#111214;fill-opacity:1;stroke:#000000;stroke-width:0.529167;stroke-dasharray:none;stroke-opacity:1"
       d="m -51.642578,1435.9783 c 7.932292,13.7402 15.864583,27.4805 23.796875,41.2207 15.865885,0 31.7317707,0 47.597656,0 7.932943,-13.7402 15.865886,-27.4805 23.798828,-41.2207 -7.932942,-13.7402 -15.865885,-27.4805 -23.798828,-41.2207 -15.8658853,0 -31.731771,0 -47.597656,0 -7.932292,13.7402 -15.864583,27.4805 -23.796875,41.2207 z" /><path
       id="path1-84-6-5-7"
       style="fill:#111214;fill-opacity:1;stroke:#000000;stroke-width:0.529167;stroke-dasharray:none;stroke-opacity:1"
       d="m -124.05469,1478.0466 c 7.93229,13.7403 15.86459,27.4805 23.79688,41.2207 15.865883,0 31.731768,0 47.597654,0 7.932942,-13.7402 15.865885,-27.4804 23.798828,-41.2207 -7.932943,-13.7402 -15.865886,-27.4804 -23.798828,-41.2207 -15.865886,0 -31.731771,0 -47.597654,0 -7.93229,13.7403 -15.86459,27.4805 -23.79688,41.2207 z" /><path
       id="path1-84-7-4"
       style="fill:#111214;fill-opacity:1;stroke:#000000;stroke-width:0.529167;stroke-dasharray:none;stroke-opacity:1"
       d="m 190.82422,90.335938 c -7.93229,13.739582 -15.86458,27.479162 -23.79688,41.218752 7.93295,13.74023 15.86589,27.48047 23.79883,41.2207 15.86589,0 31.73177,0 47.59766,0 7.93229,-13.74023 15.86458,-27.48047 23.79687,-41.2207 -7.93229,-13.74024 -15.86458,-27.48047 -23.79687,-41.220706 -15.86627,0.0013 -31.73469,-0.0026 -47.59961,0.002 z" /><path
       id="path1-84-7-5-4"
       style="fill:#111214;fill-opacity:1;stroke:#000000;stroke-width:0.529167;stroke-dasharray:none;stroke-opacity:1"
       d="m 167.06445,1394.0232 c 7.93229,13.7402 15.86459,27.4805 23.79688,41.2207 15.86588,0 31.73177,0 47.59765,0 7.93295,-13.7402 15.86589,-27.4805 23.79883,-41.2207 -7.93294,-13.7402 -15.86588,-27.4805 -23.79883,-41.2207 -15.86588,0 -31.73177,0 -47.59765,0 -7.93229,13.7402 -15.86459,27.4805 -23.79688,41.2207 z" /><path
       id="path1-84-8-9"
       style="fill:#111214;fill-opacity:1;stroke:#000000;stroke-width:0.529167;stroke-dasharray:none;stroke-opacity:1"
       d="m 167.0957,47.513672 c 7.93229,13.740234 15.86459,27.480469 23.79688,41.220703 15.86588,0 31.73177,0 47.59765,0 7.93295,-13.740234 15.86589,-27.480469 23.79883,-41.220703 -7.93294,-13.740234 -15.86588,-27.480469 -23.79883,-41.2207032 -15.86588,0 -31.73177,0 -47.59765,0 C 182.96029,20.033203 175.02799,33.773437 167.0957,47.513672 Z" /><path
       id="path1-84-5-1"
       style="fill:#111214;fill-opacity:1;stroke:#000000;stroke-width:0.529167;stroke-dasharray:none;stroke-opacity:1"
       d="m 263.7793,48.257812 c -7.93229,13.738933 -15.86459,27.477865 -23.79688,41.216797 7.93294,13.740231 15.86589,27.480471 23.79883,41.220701 15.86523,0 31.73047,0 47.5957,0 7.93295,-13.74023 15.86589,-27.48047 23.79883,-41.220701 -7.93294,-13.739583 -15.86588,-27.479166 -23.79883,-41.21875 -15.86561,0.0013 -31.73339,-0.0026 -47.59765,0.002 z" /><path
       id="path1-84-55"
       style="fill:#111214;fill-opacity:1;stroke:#000000;stroke-width:0.529167;stroke-dasharray:none;stroke-opacity:1"
       d="m 118.11133,48.34375 c -7.93164,13.738932 -15.86328,27.477865 -23.794924,41.216797 7.932294,13.740233 15.864584,27.480473 23.796874,41.220703 15.86589,0 31.73177,0 47.59766,0 7.93294,-13.74023 15.86588,-27.48047 23.79883,-41.220703 -7.93295,-13.739583 -15.86589,-27.479167 -23.79883,-41.21875 -15.86589,0.0013 -31.73698,-0.0026 -47.59961,0.002 z" /><path
       id="path1-84-6-58"
       style="fill:#111214;fill-opacity:1;stroke:#000000;stroke-width:0.529167;stroke-dasharray:none;stroke-opacity:1"
       d="m 21.529297,131.47656 c 7.932943,13.74024 15.865885,27.48047 23.798828,41.22071 15.865234,0 31.730469,0 47.595703,0 7.932942,-13.74024 15.865882,-27.48047 23.798832,-41.22071 -7.93295,-13.74023 -15.86589,-27.48047 -23.798832,-41.220701 -15.865234,0 -31.730469,0 -47.595703,0 C 37.395182,103.99609 29.46224,117.73633 21.529297,131.47656 Z" /><path
       id="path1-84-6-5-29"
       style="fill:#111214;fill-opacity:1;stroke:#000000;stroke-width:0.529167;stroke-dasharray:none;stroke-opacity:1"
       d="m -27.414062,132.48633 c -7.932292,13.73958 -15.864584,27.47916 -23.796876,41.21875 7.932943,13.73958 15.865886,27.47916 23.798829,41.21875 15.865234,0 31.7304684,0 47.595703,0 7.932942,-13.73959 15.865885,-27.47917 23.798828,-41.21875 -7.932943,-13.74024 -15.865886,-27.48047 -23.798828,-41.2207 -15.8656159,0.001 -31.733389,-0.003 -47.597656,0.002 z" /><path
       id="path1-84-6-5-8-8"
       style="fill:#111214;fill-opacity:1;stroke:#000000;stroke-width:0.529167;stroke-dasharray:none;stroke-opacity:1"
       d="m 21.386719,1393.6697 c 7.932942,13.7402 15.865885,27.4805 23.798828,41.2207 15.865234,0 31.730469,0 47.595703,0 7.93294,-13.7402 15.86589,-27.4805 23.79883,-41.2207 -7.93294,-13.7402 -15.86589,-27.4805 -23.79883,-41.2207 -15.865234,0 -31.730469,0 -47.595703,0 -7.932943,13.7402 -15.865886,27.4805 -23.798828,41.2207 z" /><path
       id="path1-84-69-2"
       style="fill:#111214;fill-opacity:1;stroke:#000000;stroke-width:0.529167;stroke-dasharray:none;stroke-opacity:1"
       d="m 94.148438,173.64453 c 7.932942,13.74024 15.865882,27.48047 23.798832,41.2207 15.86523,0 31.73046,0 47.5957,0 7.93294,-13.74023 15.86588,-27.48046 23.79883,-41.2207 -7.93295,-13.74023 -15.86589,-27.48047 -23.79883,-41.2207 -15.86524,0 -31.73047,0 -47.5957,0 -7.93295,13.74023 -15.86589,27.48047 -23.798832,41.2207 z" /><path
       id="path1-84-7-9-0"
       style="fill:#111214;fill-opacity:1;stroke:#000000;stroke-width:0.529167;stroke-dasharray:none;stroke-opacity:1"
       d="m 240.02734,173.66211 c 7.9323,13.74023 15.86459,27.48047 23.79688,41.2207 15.86588,0 31.73177,0 47.59766,0 7.93294,-13.74023 15.86588,-27.48047 23.79882,-41.2207 -7.93294,-13.74023 -15.86588,-27.48047 -23.79882,-41.2207 -15.86589,0 -31.73178,0 -47.59766,0 -7.93229,13.74023 -15.86458,27.48046 -23.79688,41.2207 z" /><path
       id="path1-84-6-5-2-7"
       style="fill:#111214;fill-opacity:1;stroke:#000000;stroke-width:0.529167;stroke-dasharray:none;stroke-opacity:1"
       d="M 44.962891,6.3125 C 37.030599,20.051432 29.098307,33.790365 21.166016,47.529297 29.098958,61.269531 37.031901,75.009766 44.964844,88.75 c 15.865234,0 31.730468,0 47.595703,0 C 100.49349,75.009766 108.42643,61.269531 116.35938,47.529297 108.42643,33.789714 100.49349,20.05013 92.560547,6.3105469 76.694931,6.3118489 60.827158,6.3079428 44.962891,6.3125 Z" /><path
       id="path1-84-6-58-7"
       style="fill:#111214;fill-opacity:1;stroke:#000000;stroke-width:0.529167;stroke-dasharray:none;stroke-opacity:1"
       d="m -99.939453,90.679688 c -7.932287,13.739582 -15.864587,27.479162 -23.796877,41.218752 7.93294,13.74023 15.86589,27.48047 23.79883,41.2207 15.865885,0 31.731771,0 47.597656,0 7.932292,-13.74023 15.864584,-27.48047 23.796875,-41.2207 -7.932291,-13.74024 -15.864583,-27.48047 -23.796875,-41.220706 -15.866266,0.0013 -31.734691,-0.0026 -47.599609,0.002 z" /><path
       id="path1-84-6-5-8-8-6"
       style="fill:#111214;fill-opacity:1;stroke:#000000;stroke-width:0.529167;stroke-dasharray:none;stroke-opacity:1"
       d="m -100.08203,1352.8728 c -7.93164,13.7396 -15.86328,27.4792 -23.79492,41.2188 7.93229,13.7396 15.86458,27.4791 23.79687,41.2187 15.865887,0 31.731773,0 47.597658,0 7.932943,-13.7396 15.865886,-27.4791 23.798828,-41.2187 -7.932942,-13.7403 -15.865885,-27.4805 -23.798828,-41.2207 -15.865885,0 -31.736979,0 -47.599608,0 z" /><path
       id="path1-84-6-5-2-7-0"
       style="fill:#111214;fill-opacity:1;stroke:#000000;stroke-width:0.529167;stroke-dasharray:none;stroke-opacity:1"
       d="m -124.09961,47.951172 c 7.93294,13.740234 15.86589,27.480469 23.79883,41.220703 15.865884,0 31.73177,0 47.597655,0 7.932943,-13.740234 15.865885,-27.480469 23.798828,-41.220703 -7.932943,-13.740235 -15.865885,-27.480469 -23.798828,-41.2207032 -15.865885,-10e-8 -31.731771,0 -47.597655,0 -7.93294,13.7402342 -15.86589,27.4804682 -23.79883,41.2207032 z" /><path
       id="path1-84-6-5-7-4"
       style="fill:#111214;fill-opacity:1;stroke:#000000;stroke-width:0.529167;stroke-dasharray:none;stroke-opacity:1"
       d="m -51.246094,89.597656 c 7.932943,13.740234 15.865886,27.480474 23.798828,41.220704 15.865235,0 31.7304691,0 47.595704,0 C 28.08138,117.07812 36.014323,103.33789 43.947266,89.597656 36.014323,75.857422 28.08138,62.117188 20.148438,48.376953 c -15.8652349,0 -31.730469,0 -47.595704,0 -7.932942,13.740235 -15.865885,27.480469 -23.798828,41.220703 z" /><path
       id="path1-84-7-3"
       style="fill:#111214;fill-opacity:1;stroke:#000000;stroke-width:0.529167;stroke-dasharray:none;stroke-opacity:1"
       d="m 94.117188,-78.832031 c 7.932292,13.740234 15.864582,27.480468 23.796872,41.220703 15.86589,0 31.73177,0 47.59766,0 7.93294,-13.740234 15.86588,-27.480469 23.79883,-41.220703 -7.93295,-13.740235 -15.86589,-27.480469 -23.79883,-41.220699 -15.86589,0 -31.73177,0 -47.59766,0 -7.93229,13.74023 -15.86458,27.480464 -23.796872,41.220699 z" /><path
       id="path1-84-7-5-0"
       style="fill:#111214;fill-opacity:1;stroke:#000000;stroke-width:0.529167;stroke-dasharray:none;stroke-opacity:1"
       d="m 117.94922,-35.914062 c -7.93229,13.739583 -15.86458,27.4791662 -23.796876,41.2187495 7.932946,13.7395835 15.865886,27.4791665 23.798826,41.2187505 15.86524,-10e-7 31.73047,0 47.59571,0 7.93294,-13.739584 15.86588,-27.479167 23.79882,-41.2187505 -7.93294,-13.7402344 -15.86588,-27.4804685 -23.79882,-41.2207035 -15.86562,0.0013 -31.73339,-0.0026 -47.59766,0.002 z" /><path
       id="path1-84-8-6"
       style="fill:#111214;fill-opacity:1;stroke:#000000;stroke-width:0.529167;stroke-dasharray:none;stroke-opacity:1"
       d="m 117.98047,-204.08984 c -7.93229,13.73958 -15.86458,27.47916 -23.796876,41.21875 7.932946,13.73958 15.865886,27.47916 23.798826,41.21875 15.86524,0 31.73047,0 47.5957,0 7.93295,-13.73959 15.86589,-27.47917 23.79883,-41.21875 -7.93294,-13.74024 -15.86588,-27.48047 -23.79883,-41.22071 -15.86561,0.001 -31.73338,-0.003 -47.59765,0.002 z" /><path
       id="path1-84-5-2"
       style="fill:url(#linearGradient73);fill-opacity:1;stroke:#000000;stroke-width:0.529167;stroke-dasharray:none;stroke-opacity:1"
       d="m 190.86719,-162.12891 c -7.93229,13.73959 -15.86459,27.47917 -23.79688,41.21875 7.93295,13.74024 15.86589,27.480472 23.79883,41.220707 15.86589,0 31.73177,0 47.59766,0 7.93294,-13.740235 15.86588,-27.480467 23.79882,-41.220707 -7.93294,-13.74023 -15.86588,-27.48047 -23.79882,-41.2207 -15.86627,0.001 -31.73469,-0.003 -47.59961,0.002 z" /><path
       id="path1-84-2"
       style="fill:url(#linearGradient71);fill-opacity:1;stroke:#000000;stroke-width:0.529167;stroke-dasharray:none;stroke-opacity:1"
       d="m 45.201172,-162.04297 c -7.932292,13.73958 -15.864583,27.47917 -23.796875,41.21875 7.932943,13.74024 15.865885,27.48047 23.798828,41.220704 15.865234,0 31.730469,0 47.595703,0 7.932942,-13.740234 15.865882,-27.480464 23.798832,-41.220704 -7.93295,-13.74023 -15.86589,-27.48047 -23.798832,-41.2207 -15.865616,10e-4 -31.733389,-0.003 -47.597656,0.002 z" /><path
       id="path1-84-6-52"
       style="fill:url(#linearGradient69);fill-opacity:1;stroke:#000000;stroke-width:0.529167;stroke-dasharray:none;stroke-opacity:1"
       d="m -27.585938,-120.12695 c -7.932291,13.73958 -15.864583,27.479164 -23.796874,41.218747 7.932942,13.740234 15.865885,27.480469 23.798828,41.220703 15.865885,0 31.7317705,0 47.597656,0 7.932292,-13.740234 15.864583,-27.480469 23.796875,-41.220703 -7.932292,-13.740235 -15.864583,-27.480467 -23.796875,-41.220707 -15.8662668,0.001 -31.734691,-0.003 -47.59961,0.002 z" /><path
       id="path1-84-6-5-27"
       style="fill:#111214;fill-opacity:1;stroke:#000000;stroke-width:0.529167;stroke-dasharray:none;stroke-opacity:1"
       d="m -124.12305,-36.681641 c 7.93295,13.740235 15.86589,27.4804691 23.79883,41.2207035 15.865887,0 31.731772,0 47.597658,0 7.932942,-13.7402344 15.865885,-27.4804685 23.798828,-41.2207035 -7.932943,-13.740234 -15.865886,-27.480468 -23.798828,-41.220703 -15.865886,0 -31.731771,0 -47.597658,0 -7.93294,13.740235 -15.86588,27.480469 -23.79883,41.220703 z" /><path
       id="path1-84-6-5-8-1"
       style="fill:#111214;fill-opacity:1;stroke:#000000;stroke-width:0.529167;stroke-dasharray:none;stroke-opacity:1"
       d="m -27.728516,-36.267578 c -7.932291,13.738932 -15.864583,27.4778645 -23.796875,41.2167968 7.932943,13.7402342 15.865886,27.4804692 23.798829,41.2207032 15.865885,0 31.7317703,0 47.597656,0 C 27.804036,32.429688 35.736979,18.689453 43.669922,4.9492188 35.736979,-8.7903646 27.804036,-22.529948 19.871094,-36.269531 c -15.8658856,0.0013 -31.73698,-0.0026 -47.59961,0.002 z" /><path
       id="path1-84-69-5"
       style="fill:#111214;fill-opacity:1;stroke:#000000;stroke-width:0.529167;stroke-dasharray:none;stroke-opacity:1"
       d="M 45.033203,-77.958984 C 37.100911,-64.219401 29.16862,-50.479818 21.236328,-36.740234 29.169271,-23 37.102214,-9.2597656 45.035156,4.4804688 c 15.865235,-10e-8 31.730469,0 47.595703,0 C 100.5638,-9.2597656 108.49674,-23 116.42969,-36.740234 108.49674,-50.480469 100.5638,-64.220703 92.630859,-77.960938 c -15.865615,0.0013 -31.733389,-0.0026 -47.597656,0.002 z" /><path
       id="path1-84-7-9-2"
       style="fill:#111214;fill-opacity:1;stroke:#000000;stroke-width:0.529167;stroke-dasharray:none;stroke-opacity:1"
       d="m 167.11523,-36.724609 c 7.93295,13.740234 15.86589,27.4804684 23.79883,41.2207028 15.86524,-10e-8 31.73047,0 47.59571,0 7.93294,-13.7402344 15.86588,-27.4804688 23.79882,-41.2207028 -7.93294,-13.740235 -15.86588,-27.480469 -23.79882,-41.220703 -15.86524,-10e-7 -31.73047,0 -47.59571,0 -7.93294,13.740234 -15.86588,27.480468 -23.79883,41.220703 z" /><path
       id="path1-84-6-5-2-1"
       style="fill:#111214;fill-opacity:1;stroke:#000000;stroke-width:0.529167;stroke-dasharray:none;stroke-opacity:1"
       d="m -51.746094,-162.85547 c 7.932943,13.74024 15.865886,27.48047 23.798828,41.2207 15.865886,0 31.7317712,0 47.597657,0 7.932291,-13.74023 15.864583,-27.48046 23.796875,-41.2207 -7.932292,-13.74023 -15.864584,-27.48047 -23.796875,-41.2207 -15.8658858,0 -31.731771,0 -47.597657,0 -7.932942,13.74023 -15.865885,27.48047 -23.798828,41.2207 z" /><path
       id="path1-84-6-5-7-1"
       style="fill:#111214;fill-opacity:1;stroke:#000000;stroke-width:0.529167;stroke-dasharray:none;stroke-opacity:1"
       d="m -100.36133,-162.00586 c -7.93229,13.73958 -15.86458,27.47917 -23.79687,41.21875 7.93294,13.74024 15.86588,27.480469 23.79882,41.220704 15.86589,0 31.731776,0 47.597661,0 7.932292,-13.740235 15.864584,-27.480464 23.796875,-41.220704 -7.932291,-13.74023 -15.864583,-27.48047 -23.796875,-41.2207 -15.866266,0.001 -31.734691,-0.003 -47.599611,0.002 z" /><path
       id="path1-84-6-58-8"
       style="fill:#111214;fill-opacity:1;stroke:#000000;stroke-width:0.529167;stroke-dasharray:none;stroke-opacity:1"
       d="m 240.0918,-78.654297 c 7.93294,13.740235 15.86588,27.480469 23.79882,41.220703 15.86589,0 31.73178,0 47.59766,0 7.93229,-13.740234 15.86458,-27.480468 23.79688,-41.220703 -7.9323,-13.740234 -15.86459,-27.480473 -23.79688,-41.220703 -15.86588,0 -31.73177,0 -47.59766,0 -7.93294,13.74023 -15.86588,27.480469 -23.79882,41.220703 z" /><path
       id="path1-84-6-5-8-8-5"
       style="fill:#111214;fill-opacity:1;stroke:#000000;stroke-width:0.529167;stroke-dasharray:none;stroke-opacity:1"
       d="m 263.74609,-36.013672 c -7.93229,13.739583 -15.86458,27.4791668 -23.79687,41.2187501 7.93294,13.7402349 15.86588,27.4804689 23.79883,41.2207029 15.86588,0 31.73177,0 47.59765,0 7.93295,-13.740234 15.86589,-27.480469 23.79883,-41.2207029 -7.93294,-13.7402344 -15.86588,-27.4804691 -23.79883,-41.2207031 -15.86588,0.0013 -31.73698,-0.0026 -47.59961,0.002 z" /><path
       id="path1-84-6-5-2-7-9"
       style="fill:#111214;fill-opacity:1;stroke:#000000;stroke-width:0.529167;stroke-dasharray:none;stroke-opacity:1"
       d="m 239.72852,-162.60156 c 7.93294,13.74023 15.86588,27.48047 23.79882,41.2207 15.86589,0 31.73177,0 47.59766,0 7.93229,-13.74023 15.86458,-27.48047 23.79688,-41.2207 -7.9323,-13.74024 -15.86459,-27.48047 -23.79688,-41.22071 -15.86589,0 -31.73177,0 -47.59766,0 -7.93294,13.74024 -15.86588,27.48047 -23.79882,41.22071 z" /><path
       id="path1-84-6-58-0"
       style="fill:#111214;fill-opacity:1;stroke:#000000;stroke-width:0.529167;stroke-dasharray:none;stroke-opacity:1"
       d="m 264.0625,1478.6189 c -7.93229,13.7396 -15.86458,27.4792 -23.79688,41.2188 7.93295,13.7395 15.86589,27.4791 23.79883,41.2187 15.86524,0 31.73047,0 47.59571,0 7.93294,-13.7396 15.86588,-27.4792 23.79882,-41.2187 -7.93294,-13.7403 -15.86588,-27.4805 -23.79882,-41.2207 -15.86562,0 -31.73339,0 -47.59766,0 z" /><path
       id="path1-84-6-5-8-8-56"
       style="fill:#111214;fill-opacity:1;stroke:#000000;stroke-width:0.529167;stroke-dasharray:none;stroke-opacity:1"
       d="m 240.12305,1603.6951 c 7.93294,13.7402 15.86588,27.4805 23.79883,41.2207 15.86523,0 31.73046,0 47.5957,0 7.93294,-13.7402 15.86588,-27.4805 23.79883,-41.2207 -7.93295,-13.7403 -15.86589,-27.4805 -23.79883,-41.2207 -15.86524,0 -31.73047,0 -47.5957,0 -7.93295,13.7402 -15.86589,27.4804 -23.79883,41.2207 z" /><path
       id="path1-84-6-5-2-7-3"
       style="fill:#111214;fill-opacity:1;stroke:#000000;stroke-width:0.529167;stroke-dasharray:none;stroke-opacity:1"
       d="m 263.69922,1394.6716 c -7.93229,13.7396 -15.86458,27.4792 -23.79688,41.2188 7.93295,13.7402 15.86589,27.4805 23.79883,41.2207 15.86524,0 31.73047,0 47.59571,0 7.93294,-13.7402 15.86588,-27.4805 23.79882,-41.2207 -7.93294,-13.7402 -15.86588,-27.4805 -23.79882,-41.2207 -15.86562,10e-4 -31.73339,0 -47.59766,0 z" /><path
       id="path1-84-8-8"
       style="display:inline;fill:#111214;fill-opacity:1;stroke:#000000;stroke-width:0.529167;stroke-dasharray:none;stroke-opacity:1"
       d="m 94.247041,1351.9487 c 7.932939,13.7402 15.865879,27.4804 23.798819,41.2207 15.86589,0 31.73178,0 47.59766,0 7.93294,-13.7403 15.86589,-27.4805 23.79883,-41.2207 -7.93294,-13.7403 -15.86589,-27.4805 -23.79883,-41.2207 -15.86588,0 -31.73177,0 -47.59766,0 -7.93294,13.7402 -15.86588,27.4804 -23.798819,41.2207 z" /><path
       id="path1-84-6-5-2-9"
       style="display:inline;fill:#111214;fill-opacity:1;stroke:#000000;stroke-width:0.529167;stroke-dasharray:none;stroke-opacity:1"
       d="m -51.680693,1351.9643 c 7.932292,13.7402 15.864583,27.4805 23.796875,41.2207 15.865885,0 31.7317716,0 47.597656,0 7.932943,-13.7402 15.865886,-27.4805 23.798828,-41.2207 -7.932942,-13.7402 -15.865885,-27.4805 -23.798828,-41.2207 -15.8658844,0 -31.731771,0 -47.597656,0 -7.932292,13.7402 -15.864583,27.4805 -23.796875,41.2207 z" /><path
       id="path1-84-7-5-4-3"
       style="display:inline;fill:#111214;fill-opacity:1;stroke:#000000;stroke-width:0.529167;stroke-dasharray:none;stroke-opacity:1"
       d="m 167.02633,1310.0092 c 7.93229,13.7402 15.86459,27.4805 23.79688,41.2207 15.86588,0 31.73177,0 47.59765,0 7.93295,-13.7402 15.86589,-27.4805 23.79883,-41.2207 -7.93294,-13.7402 -15.86588,-27.4805 -23.79883,-41.2207 -15.86588,0 -31.73177,0 -47.59765,0 -7.93229,13.7402 -15.86459,27.4805 -23.79688,41.2207 z" /><path
       id="path1-84-6-5-8-8-7"
       style="display:inline;fill:#111214;fill-opacity:1;stroke:#000000;stroke-width:0.529167;stroke-dasharray:none;stroke-opacity:1"
       d="m 21.348604,1309.6557 c 7.932942,13.7402 15.865885,27.4805 23.798828,41.2207 15.865234,0 31.730469,0 47.595703,0 7.932935,-13.7402 15.865885,-27.4805 23.798825,-41.2207 -7.93294,-13.7402 -15.86589,-27.4805 -23.798825,-41.2207 -15.865234,0 -31.730469,0 -47.595703,0 -7.932943,13.7402 -15.865886,27.4805 -23.798828,41.2207 z" /><path
       id="path1-84-6-5-8-8-6-4"
       style="display:inline;fill:#111214;fill-opacity:1;stroke:#000000;stroke-width:0.529167;stroke-dasharray:none;stroke-opacity:1"
       d="m -100.12014,1268.8588 c -7.93165,13.7396 -15.86329,27.4792 -23.79493,41.2188 7.93229,13.7396 15.86458,27.4791 23.79688,41.2187 15.865885,0 31.731768,0 47.597653,0 7.932943,-13.7396 15.865886,-27.4791 23.798828,-41.2187 -7.932942,-13.7403 -15.865885,-27.4805 -23.798828,-41.2207 -15.865885,0 -31.736978,0 -47.599603,0 z" /><path
       id="path1-84-6-5-2-7-3-8"
       style="display:inline;fill:#111214;fill-opacity:1;stroke:#000000;stroke-width:0.529167;stroke-dasharray:none;stroke-opacity:1"
       d="m 263.6611,1310.6576 c -7.93229,13.7396 -15.86458,27.4792 -23.79688,41.2188 7.93295,13.7402 15.86589,27.4805 23.79883,41.2207 15.86524,0 31.73047,0 47.59571,0 7.93294,-13.7402 15.86588,-27.4805 23.79882,-41.2207 -7.93294,-13.7402 -15.86588,-27.4805 -23.79882,-41.2207 -15.86562,0 -31.73339,0 -47.59766,0 z" /><path
       id="path73"
       style="display:inline;fill:#111214;fill-opacity:1;stroke:#000000;stroke-width:0.529167;stroke-dasharray:none;stroke-opacity:1"
       d="m 94.247041,1267.8061 c 7.932939,13.7402 15.865879,27.4804 23.798819,41.2207 15.86589,0 31.73178,0 47.59766,0 7.93294,-13.7403 15.86589,-27.4805 23.79883,-41.2207 -7.93294,-13.7403 -15.86589,-27.4805 -23.79883,-41.2207 -15.86588,0 -31.73177,0 -47.59766,0 -7.93294,13.7402 -15.86588,27.4804 -23.798819,41.2207 z" /><path
       id="path74"
       style="display:inline;fill:#111214;fill-opacity:1;stroke:#000000;stroke-width:0.529167;stroke-dasharray:none;stroke-opacity:1"
       d="m -51.680693,1267.8217 c 7.932292,13.7402 15.864583,27.4805 23.796875,41.2207 15.865885,0 31.7317716,0 47.597656,0 7.932943,-13.7402 15.865886,-27.4805 23.798828,-41.2207 -7.932942,-13.7402 -15.865885,-27.4805 -23.798828,-41.2207 -15.8658844,0 -31.731771,0 -47.597656,0 -7.932292,13.7402 -15.864583,27.4805 -23.796875,41.2207 z" /><path
       id="path75"
       style="display:inline;fill:#111214;fill-opacity:1;stroke:#000000;stroke-width:0.529167;stroke-dasharray:none;stroke-opacity:1"
       d="m 167.02633,1225.8666 c 7.93229,13.7402 15.86459,27.4805 23.79688,41.2207 15.86588,0 31.73177,0 47.59765,0 7.93295,-13.7402 15.86589,-27.4805 23.79883,-41.2207 -7.93294,-13.7402 -15.86588,-27.4805 -23.79883,-41.2207 -15.86588,0 -31.73177,0 -47.59765,0 -7.93229,13.7402 -15.86459,27.4805 -23.79688,41.2207 z" /><path
       id="path76"
       style="display:inline;fill:#111214;fill-opacity:1;stroke:#000000;stroke-width:0.529167;stroke-dasharray:none;stroke-opacity:1"
       d="m 21.348604,1225.5131 c 7.932942,13.7402 15.865885,27.4805 23.798828,41.2207 15.865234,0 31.730469,0 47.595703,0 7.932935,-13.7402 15.865885,-27.4805 23.798825,-41.2207 -7.93294,-13.7402 -15.86589,-27.4805 -23.798825,-41.2207 -15.865234,0 -31.730469,0 -47.595703,0 -7.932943,13.7402 -15.865886,27.4805 -23.798828,41.2207 z" /><path
       id="path77"
       style="display:inline;fill:#111214;fill-opacity:1;stroke:#000000;stroke-width:0.529167;stroke-dasharray:none;stroke-opacity:1"
       d="m -100.12014,1184.7162 c -7.93165,13.7396 -15.86329,27.4792 -23.79493,41.2188 7.93229,13.7396 15.86458,27.4791 23.79688,41.2187 15.865885,0 31.731768,0 47.597653,0 7.932943,-13.7396 15.865886,-27.4791 23.798828,-41.2187 -7.932942,-13.7403 -15.865885,-27.4805 -23.798828,-41.2207 -15.865885,0 -31.736978,0 -47.599603,0 z" /><path
       id="path78"
       style="display:inline;fill:#111214;fill-opacity:1;stroke:#000000;stroke-width:0.529167;stroke-dasharray:none;stroke-opacity:1"
       d="m 263.6611,1226.515 c -7.93229,13.7396 -15.86458,27.4792 -23.79688,41.2188 7.93295,13.7402 15.86589,27.4805 23.79883,41.2207 15.86524,0 31.73047,0 47.59571,0 7.93294,-13.7402 15.86588,-27.4805 23.79882,-41.2207 -7.93294,-13.7402 -15.86588,-27.4805 -23.79882,-41.2207 -15.86562,0 -31.73339,0 -47.59766,0 z" /><path
       id="path79"
       style="display:inline;fill:#111214;fill-opacity:1;stroke:#000000;stroke-width:0.529167;stroke-dasharray:none;stroke-opacity:1"
       d="m 94.247041,1183.7613 c 7.932939,13.7402 15.865879,27.4804 23.798819,41.2207 15.86589,0 31.73178,0 47.59766,0 7.93294,-13.7403 15.86589,-27.4805 23.79883,-41.2207 -7.93294,-13.7403 -15.86589,-27.4805 -23.79883,-41.2207 -15.86588,0 -31.73177,0 -47.59766,0 -7.93294,13.7402 -15.86588,27.4804 -23.798819,41.2207 z" /><path
       id="path80"
       style="display:inline;fill:#111214;fill-opacity:1;stroke:#000000;stroke-width:0.529167;stroke-dasharray:none;stroke-opacity:1"
       d="m -51.680693,1183.7769 c 7.932292,13.7402 15.864583,27.4805 23.796875,41.2207 15.865885,0 31.7317716,0 47.597656,0 7.932943,-13.7402 15.865886,-27.4805 23.798828,-41.2207 -7.932942,-13.7402 -15.865885,-27.4805 -23.798828,-41.2207 -15.8658844,0 -31.731771,0 -47.597656,0 -7.932292,13.7402 -15.864583,27.4805 -23.796875,41.2207 z" /><path
       id="path81"
       style="display:inline;fill:#111214;fill-opacity:1;stroke:#000000;stroke-width:0.529167;stroke-dasharray:none;stroke-opacity:1"
       d="m 167.02633,1141.8218 c 7.93229,13.7402 15.86459,27.4805 23.79688,41.2207 15.86588,0 31.73177,0 47.59765,0 7.93295,-13.7402 15.86589,-27.4805 23.79883,-41.2207 -7.93294,-13.7402 -15.86588,-27.4805 -23.79883,-41.2207 -15.86588,0 -31.73177,0 -47.59765,0 -7.93229,13.7402 -15.86459,27.4805 -23.79688,41.2207 z" /><path
       id="path82"
       style="display:inline;fill:#111214;fill-opacity:1;stroke:#000000;stroke-width:0.529167;stroke-dasharray:none;stroke-opacity:1"
       d="m 21.348604,1141.4683 c 7.932942,13.7402 15.865885,27.4805 23.798828,41.2207 15.865234,0 31.730469,0 47.595703,0 7.932935,-13.7402 15.865885,-27.4805 23.798825,-41.2207 -7.93294,-13.7402 -15.86589,-27.4805 -23.798825,-41.2207 -15.865234,0 -31.730469,0 -47.595703,0 -7.932943,13.7402 -15.865886,27.4805 -23.798828,41.2207 z" /><path
       id="path83"
       style="display:inline;fill:#111214;fill-opacity:1;stroke:#000000;stroke-width:0.529167;stroke-dasharray:none;stroke-opacity:1"
       d="m -100.12014,1100.6714 c -7.93165,13.7396 -15.86329,27.4792 -23.79493,41.2188 7.93229,13.7396 15.86458,27.4791 23.79688,41.2187 15.865885,0 31.731768,0 47.597653,0 7.932943,-13.7396 15.865886,-27.4791 23.798828,-41.2187 -7.932942,-13.7403 -15.865885,-27.4805 -23.798828,-41.2207 -15.865885,10e-4 -31.736978,0 -47.599603,0 z" /><path
       id="path84"
       style="display:inline;fill:#111214;fill-opacity:1;stroke:#000000;stroke-width:0.529167;stroke-dasharray:none;stroke-opacity:1"
       d="m 263.6611,1142.4702 c -7.93229,13.7396 -15.86458,27.4792 -23.79688,41.2188 7.93295,13.7402 15.86589,27.4805 23.79883,41.2207 15.86524,0 31.73047,0 47.59571,0 7.93294,-13.7402 15.86588,-27.4805 23.79882,-41.2207 -7.93294,-13.7402 -15.86588,-27.4805 -23.79882,-41.2207 -15.86562,0 -31.73339,0 -47.59766,0 z" /><path
       id="path85"
       style="display:inline;fill:#111214;fill-opacity:1;stroke:#000000;stroke-width:0.529167;stroke-dasharray:none;stroke-opacity:1"
       d="m 94.247041,1099.6187 c 7.932939,13.7402 15.865879,27.4804 23.798819,41.2207 15.86589,0 31.73178,0 47.59766,0 7.93294,-13.7403 15.86589,-27.4805 23.79883,-41.2207 -7.93294,-13.7403 -15.86589,-27.4805 -23.79883,-41.2207 -15.86588,0 -31.73177,0 -47.59766,0 -7.93294,13.7402 -15.86588,27.4804 -23.798819,41.2207 z" /><path
       id="path86"
       style="display:inline;fill:#111214;fill-opacity:1;stroke:#000000;stroke-width:0.529167;stroke-dasharray:none;stroke-opacity:1"
       d="m -51.680693,1099.6343 c 7.932292,13.7402 15.864583,27.4805 23.796875,41.2207 15.865885,0 31.7317716,0 47.597656,0 7.932943,-13.7402 15.865886,-27.4805 23.798828,-41.2207 -7.932942,-13.7402 -15.865885,-27.4805 -23.798828,-41.2207 -15.8658844,0 -31.731771,0 -47.597656,0 -7.932292,13.7402 -15.864583,27.4805 -23.796875,41.2207 z" /><path
       id="path87"
       style="display:inline;fill:#111214;fill-opacity:1;stroke:#000000;stroke-width:0.529167;stroke-dasharray:none;stroke-opacity:1"
       d="m 167.02633,1057.6792 c 7.93229,13.7402 15.86459,27.4805 23.79688,41.2207 15.86588,0 31.73177,0 47.59765,0 7.93295,-13.7402 15.86589,-27.4805 23.79883,-41.2207 -7.93294,-13.7402 -15.86588,-27.4805 -23.79883,-41.2207 -15.86588,0 -31.73177,0 -47.59765,0 -7.93229,13.7402 -15.86459,27.4805 -23.79688,41.2207 z" /><path
       id="path88"
       style="display:inline;fill:#111214;fill-opacity:1;stroke:#000000;stroke-width:0.529167;stroke-dasharray:none;stroke-opacity:1"
       d="m 21.348604,1057.3257 c 7.932942,13.7402 15.865885,27.4805 23.798828,41.2207 15.865234,0 31.730469,0 47.595703,0 7.932935,-13.7402 15.865885,-27.4805 23.798825,-41.2207 -7.93294,-13.7402 -15.86589,-27.4805 -23.798825,-41.2207 -15.865234,0 -31.730469,0 -47.595703,0 -7.932943,13.7402 -15.865886,27.4805 -23.798828,41.2207 z" /><path
       id="path89"
       style="display:inline;fill:#111214;fill-opacity:1;stroke:#000000;stroke-width:0.529167;stroke-dasharray:none;stroke-opacity:1"
       d="m -100.12014,1016.5288 c -7.93165,13.7396 -15.86329,27.4792 -23.79493,41.2188 7.93229,13.7396 15.86458,27.4791 23.79688,41.2187 15.865885,0 31.731768,0 47.597653,0 7.932943,-13.7396 15.865886,-27.4791 23.798828,-41.2187 -7.932942,-13.7403 -15.865885,-27.4805 -23.798828,-41.2207 -15.865885,0 -31.736978,0 -47.599603,0 z" /><path
       id="path90"
       style="display:inline;fill:#111214;fill-opacity:1;stroke:#000000;stroke-width:0.529167;stroke-dasharray:none;stroke-opacity:1"
       d="m 263.6611,1058.3276 c -7.93229,13.7396 -15.86458,27.4792 -23.79688,41.2188 7.93295,13.7402 15.86589,27.4805 23.79883,41.2207 15.86524,0 31.73047,0 47.59571,0 7.93294,-13.7402 15.86588,-27.4805 23.79882,-41.2207 -7.93294,-13.7402 -15.86588,-27.4805 -23.79882,-41.2207 -15.86562,0 -31.73339,0 -47.59766,0 z" /><path
       id="path1-84-8-7"
       style="display:inline;fill:#111214;fill-opacity:1;stroke:#000000;stroke-width:0.529167;stroke-dasharray:none;stroke-opacity:1"
       d="m 94.444353,1015.0433 c 7.932947,13.7402 15.865887,27.4804 23.798827,41.2207 15.86589,0 31.73178,0 47.59766,0 7.93294,-13.7403 15.86589,-27.4805 23.79883,-41.2207 -7.93294,-13.7403 -15.86589,-27.48041 -23.79883,-41.22061 -15.86588,0 -31.73177,0 -47.59766,0 -7.93294,13.7401 -15.86588,27.48021 -23.798827,41.22061 z" /><path
       id="path1-84-6-5-2-3"
       style="display:inline;fill:#111214;fill-opacity:1;stroke:#000000;stroke-width:0.529167;stroke-dasharray:none;stroke-opacity:1"
       d="m -51.483385,1015.0589 c 7.932292,13.7402 15.864583,27.4804 23.796875,41.2207 15.865885,0 31.7317701,0 47.597656,0 7.932947,-13.7402 15.865887,-27.4805 23.798827,-41.2207 -7.93294,-13.7402 -15.86588,-27.48041 -23.798827,-41.22071 -15.8658859,0 -31.731771,0 -47.597656,0 -7.932292,13.7402 -15.864583,27.48041 -23.796875,41.22071 z" /><path
       id="path1-84-7-5-4-9"
       style="display:inline;fill:#111214;fill-opacity:1;stroke:#000000;stroke-width:0.529167;stroke-dasharray:none;stroke-opacity:1"
       d="m 167.22365,973.10379 c 7.93229,13.7402 15.86459,27.48041 23.79688,41.22061 15.86588,0 31.73177,0 47.59765,0 7.93295,-13.7401 15.86589,-27.48031 23.79883,-41.22061 -7.93294,-13.7402 -15.86588,-27.4804 -23.79883,-41.2207 -15.86588,0 -31.73177,0 -47.59765,0 -7.93229,13.7402 -15.86459,27.4805 -23.79688,41.2207 z" /><path
       id="path1-84-6-5-8-8-77"
       style="display:inline;fill:#111214;fill-opacity:1;stroke:#000000;stroke-width:0.529167;stroke-dasharray:none;stroke-opacity:1"
       d="m 21.545913,972.75029 c 7.93294,13.7402 15.86588,27.48041 23.79883,41.22071 15.86523,0 31.73047,0 47.5957,0 7.932947,-13.7402 15.865897,-27.48041 23.798837,-41.22071 -7.93294,-13.7401 -15.86589,-27.4804 -23.798837,-41.2207 -15.86523,0 -31.73047,0 -47.5957,0 -7.93295,13.7402 -15.86589,27.4805 -23.79883,41.2207 z" /><path
       id="path1-84-6-5-8-8-6-9"
       style="display:inline;fill:#111214;fill-opacity:1;stroke:#000000;stroke-width:0.529167;stroke-dasharray:none;stroke-opacity:1"
       d="m -99.922833,931.95339 c -7.931637,13.7397 -15.863277,27.4792 -23.794917,41.2189 7.93229,13.7396 15.86458,27.47901 23.796867,41.21851 15.865883,0 31.731769,0 47.597654,0 7.932943,-13.7396 15.865886,-27.47901 23.798828,-41.21851 -7.932942,-13.7403 -15.865885,-27.4805 -23.798828,-41.2208 -15.865885,10e-4 -31.736979,0 -47.599604,0 z" /><path
       id="path1-84-6-5-2-7-3-5"
       style="display:inline;fill:#111214;fill-opacity:1;stroke:#000000;stroke-width:0.529167;stroke-dasharray:none;stroke-opacity:1"
       d="m 263.85842,973.75219 c -7.93229,13.7397 -15.86458,27.47911 -23.79688,41.21881 7.93295,13.7402 15.86589,27.4804 23.79883,41.2207 15.86524,0 31.73047,0 47.59571,0 7.93294,-13.7402 15.86588,-27.4805 23.79882,-41.2207 -7.93294,-13.7402 -15.86588,-27.48041 -23.79882,-41.22071 -15.86562,0.001 -31.73339,0 -47.59766,0 z" /><path
       id="path1-84-8-8-3"
       style="display:inline;fill:#111214;fill-opacity:1;stroke:#000000;stroke-width:0.529167;stroke-dasharray:none;stroke-opacity:1"
       d="m 94.406233,931.02929 c 7.932947,13.7402 15.865887,27.4804 23.798827,41.2208 15.86589,0 31.73178,0 47.59766,0 7.93294,-13.7403 15.86589,-27.4805 23.79883,-41.2208 -7.93294,-13.7402 -15.86589,-27.4804 -23.79883,-41.2207 -15.86588,0 -31.73177,0 -47.59766,0 -7.93294,13.7402 -15.86588,27.4804 -23.798827,41.2207 z" /><path
       id="path1-84-6-5-2-9-3"
       style="display:inline;fill:#111214;fill-opacity:1;stroke:#000000;stroke-width:0.529167;stroke-dasharray:none;stroke-opacity:1"
       d="m -51.5215,931.04489 c 7.932292,13.7402 15.864583,27.4805 23.796875,41.2208 15.865885,0 31.7317711,0 47.597656,0 7.932942,-13.7402 15.865882,-27.4805 23.798832,-41.2208 -7.93295,-13.7402 -15.86589,-27.4804 -23.798832,-41.2207 -15.8658849,0 -31.731771,0 -47.597656,0 -7.932292,13.7402 -15.864583,27.4805 -23.796875,41.2207 z" /><path
       id="path1-84-7-5-4-3-3"
       style="display:inline;fill:#111214;fill-opacity:1;stroke:#000000;stroke-width:0.529167;stroke-dasharray:none;stroke-opacity:1"
       d="m 167.18553,889.08989 c 7.93229,13.7401 15.86459,27.4804 23.79688,41.2207 15.86588,0 31.73177,0 47.59765,0 7.93295,-13.7402 15.86589,-27.4805 23.79883,-41.2207 -7.93294,-13.7402 -15.86588,-27.4805 -23.79883,-41.2208 -15.86588,0 -31.73177,0 -47.59765,0 -7.93229,13.7402 -15.86459,27.4805 -23.79688,41.2208 z" /><path
       id="path1-84-6-5-8-8-7-8"
       style="display:inline;fill:#111214;fill-opacity:1;stroke:#000000;stroke-width:0.529167;stroke-dasharray:none;stroke-opacity:1"
       d="m 21.507793,888.73639 c 7.93295,13.7402 15.86589,27.4804 23.79883,41.2207 15.86524,0 31.73047,0 47.5957,0 7.932947,-13.7402 15.865897,-27.4805 23.798837,-41.2207 -7.93294,-13.7402 -15.86589,-27.4805 -23.798837,-41.2207 -15.86523,0 -31.73046,0 -47.5957,0 -7.93294,13.7401 -15.86588,27.4804 -23.79883,41.2207 z" /><path
       id="path1-84-6-5-8-8-6-4-5"
       style="display:inline;fill:#111214;fill-opacity:1;stroke:#000000;stroke-width:0.529167;stroke-dasharray:none;stroke-opacity:1"
       d="m -99.960943,847.93949 c -7.931647,13.7396 -15.863287,27.4792 -23.794927,41.2188 7.93229,13.7396 15.86458,27.4791 23.796877,41.2187 15.865881,0 31.731764,0 47.597649,0 7.932943,-13.7397 15.865886,-27.4791 23.798828,-41.2187 -7.932942,-13.7403 -15.865885,-27.4805 -23.798828,-41.2207 -15.865885,0 -31.736978,0 -47.599599,0 z" /><path
       id="path1-84-6-5-2-7-3-8-8"
       style="display:inline;fill:#111214;fill-opacity:1;stroke:#000000;stroke-width:0.529167;stroke-dasharray:none;stroke-opacity:1"
       d="m 263.8203,889.73829 c -7.93229,13.7396 -15.86458,27.4792 -23.79688,41.2188 7.93295,13.7402 15.86589,27.4805 23.79883,41.2207 15.86524,0 31.73047,0 47.59571,0 7.93294,-13.7402 15.86588,-27.4805 23.79882,-41.2207 -7.93294,-13.7402 -15.86588,-27.4805 -23.79882,-41.2207 -15.86562,0 -31.73339,0 -47.59766,0 z" /><path
       id="path73-9"
       style="display:inline;fill:#111214;fill-opacity:1;stroke:#000000;stroke-width:0.529167;stroke-dasharray:none;stroke-opacity:1"
       d="m 94.406233,846.88679 c 7.932947,13.7402 15.865887,27.4803 23.798827,41.2207 15.86589,0 31.73178,0 47.59766,0 7.93294,-13.7403 15.86589,-27.4805 23.79883,-41.2207 -7.93294,-13.7403 -15.86589,-27.4805 -23.79883,-41.2208 -15.86588,0 -31.73177,0 -47.59766,0 -7.93294,13.7402 -15.86588,27.4804 -23.798827,41.2208 z" /><path
       id="path74-6"
       style="display:inline;fill:#111214;fill-opacity:1;stroke:#000000;stroke-width:0.529167;stroke-dasharray:none;stroke-opacity:1"
       d="m -51.5215,846.90239 c 7.932292,13.7401 15.864583,27.4804 23.796875,41.2207 15.865885,0 31.7317711,0 47.597656,0 7.932942,-13.7402 15.865882,-27.4805 23.798832,-41.2207 -7.93295,-13.7402 -15.86589,-27.4805 -23.798832,-41.2208 -15.8658849,0 -31.731771,0 -47.597656,0 -7.932292,13.7402 -15.864583,27.4805 -23.796875,41.2208 z" /><path
       id="path78-3"
       style="display:inline;fill:#111214;fill-opacity:1;stroke:#000000;stroke-width:0.529167;stroke-dasharray:none;stroke-opacity:1"
       d="m 263.8203,805.59559 c -7.93229,13.7397 -15.86458,27.4792 -23.79688,41.2189 7.93295,13.7401 15.86589,27.4804 23.79883,41.2207 15.86524,0 31.73047,0 47.59571,0 7.93294,-13.7402 15.86588,-27.4805 23.79882,-41.2207 -7.93294,-13.7402 -15.86588,-27.4805 -23.79882,-41.2208 -15.86562,0 -31.73339,0 -47.59766,0 z" /><path
       id="path75-01"
       style="display:inline;fill:#111214;fill-opacity:1;stroke:#000000;stroke-width:0.529167;stroke-dasharray:none;stroke-opacity:1"
       d="m 166.90145,804.98726 c 7.93229,13.7402 15.86459,27.4805 23.79688,41.2207 15.86588,0 31.73177,0 47.59765,0 7.93295,-13.7402 15.86589,-27.4805 23.79883,-41.2207 -7.93294,-13.7402 -15.86588,-27.4805 -23.79883,-41.2207 -15.86588,0 -31.73177,0 -47.59765,0 -7.93229,13.7402 -15.86459,27.4805 -23.79688,41.2207 z" /><path
       id="path76-9"
       style="display:inline;fill:#111214;fill-opacity:1;stroke:#000000;stroke-width:0.529167;stroke-dasharray:none;stroke-opacity:1"
       d="m 21.223727,804.63376 c 7.932942,13.7402 15.865885,27.4805 23.798828,41.2207 15.865234,0 31.730469,0 47.595703,0 7.932932,-13.7402 15.865882,-27.4805 23.798822,-41.2207 -7.93294,-13.7402 -15.86589,-27.4805 -23.798822,-41.2207 -15.865234,0 -31.730469,0 -47.595703,0 -7.932943,13.7402 -15.865886,27.4805 -23.798828,41.2207 z" /><path
       id="path77-8"
       style="display:inline;fill:#111214;fill-opacity:1;stroke:#000000;stroke-width:0.529167;stroke-dasharray:none;stroke-opacity:1"
       d="m -100.24502,763.83686 c -7.93165,13.7396 -15.86329,27.4792 -23.79493,41.2188 7.93229,13.7396 15.86458,27.4791 23.79688,41.2187 15.865893,0 31.731773,0 47.597656,0 7.932943,-13.7396 15.865886,-27.4791 23.798828,-41.2187 -7.932942,-13.7403 -15.865885,-27.4805 -23.798828,-41.2207 -15.865883,10e-4 -31.736973,0 -47.599606,0 z" /><path
       id="path79-9"
       style="display:inline;fill:#111214;fill-opacity:1;stroke:#000000;stroke-width:0.529167;stroke-dasharray:none;stroke-opacity:1"
       d="m 94.122164,762.88196 c 7.932936,13.7402 15.865876,27.4804 23.798816,41.2207 15.86589,0 31.73178,0 47.59766,0 7.93294,-13.7403 15.86589,-27.4805 23.79883,-41.2207 -7.93294,-13.7403 -15.86589,-27.4805 -23.79883,-41.2207 -15.86588,0 -31.73177,0 -47.59766,0 -7.93294,13.7402 -15.86588,27.4804 -23.798816,41.2207 z" /><path
       id="path80-0"
       style="display:inline;fill:#111214;fill-opacity:1;stroke:#000000;stroke-width:0.529167;stroke-dasharray:none;stroke-opacity:1"
       d="m -51.80557,762.89756 c 7.932292,13.7402 15.864583,27.4805 23.796875,41.2207 15.865885,0 31.731772,0 47.597656,0 7.932943,-13.7402 15.865886,-27.4805 23.798828,-41.2207 -7.932942,-13.7402 -15.865885,-27.4805 -23.798828,-41.2207 -15.865884,0 -31.731771,0 -47.597656,0 -7.932292,13.7402 -15.864583,27.4805 -23.796875,41.2207 z" /><path
       id="path81-1"
       style="display:inline;fill:#111214;fill-opacity:1;stroke:#000000;stroke-width:0.529167;stroke-dasharray:none;stroke-opacity:1"
       d="m 166.90145,720.94246 c 7.93229,13.7402 15.86459,27.4805 23.79688,41.2207 15.86588,0 31.73177,0 47.59765,0 7.93295,-13.7402 15.86589,-27.4805 23.79883,-41.2207 -7.93294,-13.7402 -15.86588,-27.4805 -23.79883,-41.2207 -15.86588,0 -31.73177,0 -47.59765,0 -7.93229,13.7402 -15.86459,27.4805 -23.79688,41.2207 z" /><path
       id="path82-6"
       style="display:inline;fill:#111214;fill-opacity:1;stroke:#000000;stroke-width:0.529167;stroke-dasharray:none;stroke-opacity:1"
       d="m 21.223727,720.58896 c 7.932942,13.7402 15.865885,27.4805 23.798828,41.2207 15.865234,0 31.730469,0 47.595703,0 7.932932,-13.7402 15.865882,-27.4805 23.798822,-41.2207 -7.93294,-13.7402 -15.86589,-27.4805 -23.798822,-41.2207 -15.865234,0 -31.730469,0 -47.595703,0 -7.932943,13.7402 -15.865886,27.4805 -23.798828,41.2207 z" /><path
       id="path83-4"
       style="display:inline;fill:#111214;fill-opacity:1;stroke:#000000;stroke-width:0.529167;stroke-dasharray:none;stroke-opacity:1"
       d="m -100.24502,679.79206 c -7.93165,13.7396 -15.86329,27.4792 -23.79493,41.2188 7.93229,13.7396 15.86458,27.4791 23.79688,41.2187 15.865893,0 31.731773,0 47.597656,0 7.932943,-13.7396 15.865886,-27.4791 23.798828,-41.2187 -7.932942,-13.7403 -15.865885,-27.4805 -23.798828,-41.2207 -15.865883,10e-4 -31.736973,0 -47.599606,0 z" /><path
       id="path84-4"
       style="display:inline;fill:#111214;fill-opacity:1;stroke:#000000;stroke-width:0.529167;stroke-dasharray:none;stroke-opacity:1"
       d="m 263.53622,721.59086 c -7.93229,13.7396 -15.86458,27.4792 -23.79688,41.2188 7.93295,13.7402 15.86589,27.4805 23.79883,41.2207 15.86524,0 31.73047,0 47.59571,0 7.93294,-13.7402 15.86588,-27.4805 23.79882,-41.2207 -7.93294,-13.7402 -15.86588,-27.4805 -23.79882,-41.2207 -15.86562,0 -31.73339,0 -47.59766,0 z" /><path
       id="path85-8"
       style="display:inline;fill:#111214;fill-opacity:1;stroke:#000000;stroke-width:0.529167;stroke-dasharray:none;stroke-opacity:1"
       d="m 94.122164,678.73936 c 7.932936,13.7402 15.865876,27.4804 23.798816,41.2207 15.86589,0 31.73178,0 47.59766,0 7.93294,-13.7403 15.86589,-27.4805 23.79883,-41.2207 -7.93294,-13.7403 -15.86589,-27.4805 -23.79883,-41.2207 -15.86588,0 -31.73177,0 -47.59766,0 -7.93294,13.7402 -15.86588,27.4804 -23.798816,41.2207 z" /><path
       id="path86-6"
       style="display:inline;fill:#111214;fill-opacity:1;stroke:#000000;stroke-width:0.529167;stroke-dasharray:none;stroke-opacity:1"
       d="m -51.80557,678.75496 c 7.932292,13.7402 15.864583,27.4805 23.796875,41.2207 15.865885,0 31.731772,0 47.597656,0 7.932943,-13.7402 15.865886,-27.4805 23.798828,-41.2207 -7.932942,-13.7402 -15.865885,-27.4805 -23.798828,-41.2207 -15.865884,0 -31.731771,0 -47.597656,0 -7.932292,13.7402 -15.864583,27.4805 -23.796875,41.2207 z" /><path
       id="path87-1"
       style="display:inline;fill:#111214;fill-opacity:1;stroke:#000000;stroke-width:0.529167;stroke-dasharray:none;stroke-opacity:1"
       d="m 166.90145,636.79986 c 7.93229,13.7402 15.86459,27.4805 23.79688,41.2207 15.86588,0 31.73177,0 47.59765,0 7.93295,-13.7402 15.86589,-27.4805 23.79883,-41.2207 -7.93294,-13.7402 -15.86588,-27.4805 -23.79883,-41.2207 -15.86588,0 -31.73177,0 -47.59765,0 -7.93229,13.7402 -15.86459,27.4805 -23.79688,41.2207 z" /><path
       id="path88-4"
       style="display:inline;fill:#111214;fill-opacity:1;stroke:#000000;stroke-width:0.529167;stroke-dasharray:none;stroke-opacity:1"
       d="m 21.223727,636.44636 c 7.932942,13.7402 15.865885,27.4805 23.798828,41.2207 15.865234,0 31.730469,0 47.595703,0 7.932932,-13.7402 15.865882,-27.4805 23.798822,-41.2207 -7.93294,-13.7402 -15.86589,-27.4805 -23.798822,-41.2207 -15.865234,0 -31.730469,0 -47.595703,0 -7.932943,13.7402 -15.865886,27.4805 -23.798828,41.2207 z" /><path
       id="path89-0"
       style="display:inline;fill:#111214;fill-opacity:1;stroke:#000000;stroke-width:0.529167;stroke-dasharray:none;stroke-opacity:1"
       d="m -100.24502,595.64946 c -7.93165,13.7396 -15.86329,27.4792 -23.79493,41.2188 7.93229,13.7396 15.86458,27.4791 23.79688,41.2187 15.865893,0 31.731773,0 47.597656,0 7.932943,-13.7396 15.865886,-27.4791 23.798828,-41.2187 -7.932942,-13.7403 -15.865885,-27.4805 -23.798828,-41.2207 -15.865883,0 -31.736973,0 -47.599606,0 z" /><path
       id="path90-8"
       style="display:inline;fill:#111214;fill-opacity:1;stroke:#000000;stroke-width:0.529167;stroke-dasharray:none;stroke-opacity:1"
       d="m 263.53622,637.44826 c -7.93229,13.7396 -15.86458,27.4792 -23.79688,41.2188 7.93295,13.7402 15.86589,27.4805 23.79883,41.2207 15.86524,0 31.73047,0 47.59571,0 7.93294,-13.7402 15.86588,-27.4805 23.79882,-41.2207 -7.93294,-13.7402 -15.86588,-27.4805 -23.79882,-41.2207 -15.86562,0 -31.73339,0 -47.59766,0 z" /><path
       id="path1-84-8-7-1"
       style="display:inline;fill:#111214;fill-opacity:1;stroke:#000000;stroke-width:0.529167;stroke-dasharray:none;stroke-opacity:1"
       d="m 94.319476,594.16396 c 7.932944,13.7402 15.865884,27.4804 23.798824,41.2207 15.86589,0 31.73178,0 47.59766,0 7.93294,-13.7403 15.86589,-27.4805 23.79883,-41.2207 -7.93294,-13.7403 -15.86589,-27.4805 -23.79883,-41.2207 -15.86588,0 -31.73177,0 -47.59766,0 -7.93294,13.7401 -15.86588,27.4803 -23.798824,41.2207 z" /><path
       id="path1-84-6-5-2-3-0"
       style="display:inline;fill:#111214;fill-opacity:1;stroke:#000000;stroke-width:0.529167;stroke-dasharray:none;stroke-opacity:1"
       d="m -51.608262,594.17956 c 7.932292,13.7402 15.864583,27.4804 23.796875,41.2207 15.865885,0 31.73177,0 47.597656,0 7.932947,-13.7402 15.865887,-27.4805 23.798827,-41.2207 -7.93294,-13.7402 -15.86588,-27.4805 -23.798827,-41.2208 -15.865886,0 -31.731771,0 -47.597656,0 -7.932292,13.7402 -15.864583,27.4805 -23.796875,41.2208 z" /><path
       id="path1-84-7-5-4-9-3"
       style="display:inline;fill:#111214;fill-opacity:1;stroke:#000000;stroke-width:0.529167;stroke-dasharray:none;stroke-opacity:1"
       d="m 167.09877,552.22436 c 7.93229,13.7402 15.86459,27.4805 23.79688,41.2207 15.86588,0 31.73177,0 47.59765,0 7.93295,-13.7401 15.86589,-27.4804 23.79883,-41.2207 -7.93294,-13.7402 -15.86588,-27.48042 -23.79883,-41.22072 -15.86588,0 -31.73177,0 -47.59765,0 -7.93229,13.7402 -15.86459,27.48052 -23.79688,41.22072 z" /><path
       id="path1-84-6-5-8-8-77-1"
       style="display:inline;fill:#111214;fill-opacity:1;stroke:#000000;stroke-width:0.529167;stroke-dasharray:none;stroke-opacity:1"
       d="m 21.421036,551.87086 c 7.93294,13.7402 15.86588,27.4805 23.79883,41.2208 15.86523,0 31.73047,0 47.5957,0 7.932944,-13.7402 15.865894,-27.4805 23.798834,-41.2208 -7.93294,-13.7401 -15.86589,-27.48042 -23.798834,-41.22072 -15.86523,0 -31.73047,0 -47.5957,0 -7.93295,13.7402 -15.86589,27.48052 -23.79883,41.22072 z" /><path
       id="path1-84-6-5-8-8-6-9-1"
       style="display:inline;fill:#111214;fill-opacity:1;stroke:#000000;stroke-width:0.529167;stroke-dasharray:none;stroke-opacity:1"
       d="m -100.04771,511.07394 c -7.93164,13.7397 -15.86328,27.47922 -23.79492,41.21892 7.93229,13.7396 15.86458,27.4791 23.79687,41.2186 15.865883,0 31.731773,0 47.597654,0 7.932943,-13.7396 15.865886,-27.4791 23.798828,-41.2186 -7.932942,-13.7403 -15.865885,-27.48052 -23.798828,-41.22082 -15.865881,10e-4 -31.736981,0 -47.599604,0 z" /><path
       id="path1-84-6-5-2-7-3-5-5"
       style="display:inline;fill:#111214;fill-opacity:1;stroke:#000000;stroke-width:0.529167;stroke-dasharray:none;stroke-opacity:1"
       d="m 263.73354,552.87276 c -7.93229,13.7397 -15.86458,27.4792 -23.79688,41.2189 7.93295,13.7402 15.86589,27.4804 23.79883,41.2207 15.86524,0 31.73047,0 47.59571,0 7.93294,-13.7402 15.86588,-27.4805 23.79882,-41.2207 -7.93294,-13.7402 -15.86588,-27.4805 -23.79882,-41.2208 -15.86562,10e-4 -31.73339,0 -47.59766,0 z" /><path
       id="path1-84-8-8-3-0"
       style="display:inline;fill:#111214;fill-opacity:1;stroke:#000000;stroke-width:0.529167;stroke-dasharray:none;stroke-opacity:1"
       d="m 94.281356,510.14984 c 7.932944,13.7402 15.865884,27.48042 23.798824,41.22082 15.86589,0 31.73178,0 47.59766,0 7.93294,-13.7403 15.86589,-27.48052 23.79883,-41.22082 -7.93294,-13.7402 -15.86589,-27.4804 -23.79883,-41.2207 -15.86588,0 -31.73177,0 -47.59766,0 -7.93294,13.7402 -15.86588,27.4804 -23.798824,41.2207 z" /><path
       id="path1-84-6-5-2-9-3-8"
       style="display:inline;fill:#111214;fill-opacity:1;stroke:#000000;stroke-width:0.529167;stroke-dasharray:none;stroke-opacity:1"
       d="m -51.646377,510.16544 c 7.932292,13.7402 15.864583,27.48052 23.796875,41.22082 15.865885,0 31.731771,0 47.597656,0 7.932942,-13.7402 15.865882,-27.48052 23.798832,-41.22082 -7.93295,-13.7402 -15.86589,-27.4804 -23.798832,-41.2207 -15.865885,0 -31.731771,0 -47.597656,0 -7.932292,13.7402 -15.864583,27.4805 -23.796875,41.2207 z" /><path
       id="path1-84-7-5-4-3-3-4"
       style="display:inline;fill:#111214;fill-opacity:1;stroke:#000000;stroke-width:0.529167;stroke-dasharray:none;stroke-opacity:1"
       d="m 167.06065,468.21044 c 7.93229,13.7401 15.86459,27.4804 23.79688,41.2207 15.86588,0 31.73177,0 47.59765,0 7.93295,-13.7402 15.86589,-27.4805 23.79883,-41.2207 -7.93294,-13.7402 -15.86588,-27.4805 -23.79883,-41.2208 -15.86588,0 -31.73177,0 -47.59765,0 -7.93229,13.7402 -15.86459,27.4805 -23.79688,41.2208 z" /><path
       id="path1-84-6-5-8-8-7-8-9"
       style="display:inline;fill:#111214;fill-opacity:1;stroke:#000000;stroke-width:0.529167;stroke-dasharray:none;stroke-opacity:1"
       d="m 21.382916,467.85694 c 7.93295,13.7402 15.86589,27.4804 23.79883,41.2207 15.86524,0 31.73047,0 47.5957,0 7.932944,-13.7402 15.865894,-27.4805 23.798834,-41.2207 -7.93294,-13.7402 -15.86589,-27.4805 -23.798834,-41.2207 -15.86523,0 -31.73046,0 -47.5957,0 -7.93294,13.7401 -15.86588,27.4804 -23.79883,41.2207 z" /><path
       id="path1-84-6-5-8-8-6-4-5-3"
       style="display:inline;fill:#111214;fill-opacity:1;stroke:#000000;stroke-width:0.529167;stroke-dasharray:none;stroke-opacity:1"
       d="m -100.08582,427.06004 c -7.93165,13.7396 -15.86329,27.4792 -23.79493,41.2188 7.93229,13.7396 15.86458,27.4791 23.79688,41.2187 15.865883,0 31.731763,0 47.597649,0 7.932943,-13.7397 15.865886,-27.4791 23.798828,-41.2187 -7.932942,-13.7403 -15.865885,-27.4805 -23.798828,-41.2207 -15.865886,0.001 -31.736976,0 -47.599599,0 z" /><path
       id="path1-84-6-5-2-7-3-8-8-0"
       style="display:inline;fill:#111214;fill-opacity:1;stroke:#000000;stroke-width:0.529167;stroke-dasharray:none;stroke-opacity:1"
       d="m 263.69542,468.85884 c -7.93229,13.7396 -15.86458,27.4792 -23.79688,41.2188 7.93295,13.7402 15.86589,27.48052 23.79883,41.22072 15.86524,0 31.73047,0 47.59571,0 7.93294,-13.7402 15.86588,-27.48052 23.79882,-41.22072 -7.93294,-13.7402 -15.86588,-27.4805 -23.79882,-41.2207 -15.86562,0 -31.73339,0 -47.59766,0 z" /><path
       id="path73-9-5"
       style="display:inline;fill:#111214;fill-opacity:1;stroke:#000000;stroke-width:0.529167;stroke-dasharray:none;stroke-opacity:1"
       d="m 94.281356,426.00734 c 7.932944,13.7402 15.865884,27.4803 23.798824,41.2207 15.86589,0 31.73178,0 47.59766,0 7.93294,-13.7403 15.86589,-27.4805 23.79883,-41.2207 -7.93294,-13.7403 -15.86589,-27.4805 -23.79883,-41.2208 -15.86588,0 -31.73177,0 -47.59766,0 -7.93294,13.7402 -15.86588,27.4804 -23.798824,41.2208 z" /><path
       id="path74-6-2"
       style="display:inline;fill:#111214;fill-opacity:1;stroke:#000000;stroke-width:0.529167;stroke-dasharray:none;stroke-opacity:1"
       d="m -51.646377,426.02294 c 7.932292,13.7401 15.864583,27.4804 23.796875,41.2207 15.865885,0 31.731771,0 47.597656,0 7.932942,-13.7402 15.865882,-27.4805 23.798832,-41.2207 -7.93295,-13.7402 -15.86589,-27.4805 -23.798832,-41.2208 -15.865885,0 -31.731771,0 -47.597656,0 -7.932292,13.7402 -15.864583,27.4805 -23.796875,41.2208 z" /><path
       id="path75-0-3"
       style="display:inline;fill:#111214;fill-opacity:1;stroke:#000000;stroke-width:0.529167;stroke-dasharray:none;stroke-opacity:1"
       d="m 167.06065,384.06774 c 7.93229,13.7402 15.86459,27.4805 23.79688,41.2207 15.86588,0 31.73177,0 47.59765,0 7.93295,-13.7401 15.86589,-27.4804 23.79883,-41.2207 -7.93294,-13.74024 -15.86588,-27.48054 -23.79883,-41.22074 -15.86588,0 -31.73177,0 -47.59765,0 -7.93229,13.7402 -15.86459,27.4805 -23.79688,41.22074 z" /><path
       id="path76-4-8"
       style="display:inline;fill:#111214;fill-opacity:1;stroke:#000000;stroke-width:0.529167;stroke-dasharray:none;stroke-opacity:1"
       d="m 21.382916,383.71424 c 7.93295,13.7402 15.86589,27.4805 23.79883,41.2208 15.86524,0 31.73047,0 47.5957,0 7.932944,-13.7402 15.865894,-27.4805 23.798834,-41.2208 -7.93294,-13.74024 -15.86589,-27.48044 -23.798834,-41.22074 -15.86523,0 -31.73046,0 -47.5957,0 -7.93294,13.7402 -15.86588,27.4805 -23.79883,41.22074 z" /><path
       id="path77-2-7"
       style="display:inline;fill:#111214;fill-opacity:1;stroke:#000000;stroke-width:0.529167;stroke-dasharray:none;stroke-opacity:1"
       d="m -100.08582,342.9173 c -7.93165,13.7397 -15.86329,27.4792 -23.79493,41.21894 7.93229,13.7396 15.86458,27.4791 23.79688,41.2186 15.865883,0 31.731763,0 47.597649,0 7.932943,-13.7396 15.865886,-27.4791 23.798828,-41.2186 -7.932942,-13.74034 -15.865885,-27.48054 -23.798828,-41.22084 -15.865886,0.001 -31.736976,0 -47.599599,0 z" /><path
       id="path78-3-8"
       style="display:inline;fill:#111214;fill-opacity:1;stroke:#000000;stroke-width:0.529167;stroke-dasharray:none;stroke-opacity:1"
       d="m 263.69542,384.71614 c -7.93229,13.7397 -15.86458,27.4792 -23.79688,41.2189 7.93295,13.7401 15.86589,27.4804 23.79883,41.2207 15.86524,0 31.73047,0 47.59571,0 7.93294,-13.7402 15.86588,-27.4805 23.79882,-41.2207 -7.93294,-13.7402 -15.86588,-27.4805 -23.79882,-41.2208 -15.86562,0 -31.73339,0 -47.59766,0 z" /><path
       id="path79-3-0"
       style="display:inline;fill:#111214;fill-opacity:1;stroke:#000000;stroke-width:0.529167;stroke-dasharray:none;stroke-opacity:1"
       d="m 94.281356,341.9624 c 7.932944,13.7402 15.865884,27.4804 23.798824,41.22084 15.86589,0 31.73178,0 47.59766,0 7.93294,-13.74034 15.86589,-27.48054 23.79883,-41.22084 -7.93294,-13.7402 -15.86589,-27.4804 -23.79883,-41.2207 -15.86588,0 -31.73177,0 -47.59766,0 -7.93294,13.7402 -15.86588,27.4804 -23.798824,41.2207 z" /><path
       id="path80-7-4"
       style="display:inline;fill:#111214;fill-opacity:1;stroke:#000000;stroke-width:0.529167;stroke-dasharray:none;stroke-opacity:1"
       d="m -51.646377,341.978 c 7.932292,13.7402 15.864583,27.4805 23.796875,41.22074 15.865885,0 31.731771,0 47.597656,0 7.932942,-13.74014 15.865882,-27.48044 23.798832,-41.22074 -7.93295,-13.7402 -15.86589,-27.4804 -23.798832,-41.2207 -15.865885,0 -31.731771,0 -47.597656,0 -7.932292,13.7402 -15.864583,27.4805 -23.796875,41.2207 z" /><path
       id="path81-0-5"
       style="display:inline;fill:#111214;fill-opacity:1;stroke:#000000;stroke-width:0.529167;stroke-dasharray:none;stroke-opacity:1"
       d="m 167.06065,300.0229 c 7.93229,13.7402 15.86459,27.4805 23.79688,41.2208 15.86588,0 31.73177,0 47.59765,0 7.93295,-13.7402 15.86589,-27.4805 23.79883,-41.2208 -7.93294,-13.7401 -15.86588,-27.4804 -23.79883,-41.2207 -15.86588,0 -31.73177,0 -47.59765,0 -7.93229,13.7402 -15.86459,27.4805 -23.79688,41.2207 z" /><path
       id="path82-0-7"
       style="display:inline;fill:#111214;fill-opacity:1;stroke:#000000;stroke-width:0.529167;stroke-dasharray:none;stroke-opacity:1"
       d="m 21.382916,299.6695 c 7.93295,13.7402 15.86589,27.4804 23.79883,41.2207 15.86524,0 31.73047,0 47.5957,0 7.932944,-13.7402 15.865894,-27.4805 23.798834,-41.2207 -7.93294,-13.7402 -15.86589,-27.4805 -23.798834,-41.2208 -15.86523,0 -31.73046,0 -47.5957,0 -7.93294,13.7402 -15.86588,27.4805 -23.79883,41.2208 z" /><path
       id="path83-1-1"
       style="display:inline;fill:#111214;fill-opacity:1;stroke:#000000;stroke-width:0.529167;stroke-dasharray:none;stroke-opacity:1"
       d="m -100.08582,258.8726 c -7.93165,13.7396 -15.86329,27.4791 -23.79493,41.2188 7.93229,13.7396 15.86458,27.4791 23.79688,41.2187 15.865883,0 31.731763,0 47.597649,0 7.932943,-13.7397 15.865886,-27.4792 23.798828,-41.2187 -7.932942,-13.7403 -15.865885,-27.4805 -23.798828,-41.2207 -15.865886,10e-4 -31.736976,0 -47.599599,0 z" /><path
       id="path84-0-0"
       style="display:inline;fill:#111214;fill-opacity:1;stroke:#000000;stroke-width:0.529167;stroke-dasharray:none;stroke-opacity:1"
       d="m 263.69542,300.6714 c -7.93229,13.7396 -15.86458,27.4792 -23.79688,41.2188 7.93295,13.7402 15.86589,27.4805 23.79883,41.22074 15.86524,0 31.73047,0 47.59571,0 7.93294,-13.74024 15.86588,-27.48054 23.79882,-41.22074 -7.93294,-13.7402 -15.86588,-27.4805 -23.79882,-41.2207 -15.86562,0 -31.73339,0 -47.59766,0 z" /><path
       id="path85-3-6"
       style="display:inline;fill:#111214;fill-opacity:1;stroke:#000000;stroke-width:0.529167;stroke-dasharray:none;stroke-opacity:1"
       d="m 94.281356,257.8199 c 7.932944,13.7402 15.865884,27.4803 23.798824,41.2207 15.86589,0 31.73178,0 47.59766,0 7.93294,-13.7403 15.86589,-27.4805 23.79883,-41.2207 -7.93294,-13.7403 -15.86589,-27.4805 -23.79883,-41.2208 -15.86588,0 -31.73177,0 -47.59766,0 -7.93294,13.7402 -15.86588,27.4804 -23.798824,41.2208 z" /><path
       id="path86-0-0"
       style="display:inline;fill:#111214;fill-opacity:1;stroke:#000000;stroke-width:0.529167;stroke-dasharray:none;stroke-opacity:1"
       d="m -51.646377,257.8354 c 7.932292,13.7402 15.864583,27.4805 23.796875,41.2208 15.865885,0 31.731771,0 47.597656,0 7.932942,-13.7402 15.865882,-27.4805 23.798832,-41.2208 -7.93295,-13.7401 -15.86589,-27.4804 -23.798832,-41.2207 -15.865885,0 -31.731771,0 -47.597656,0 -7.932292,13.7402 -15.864583,27.4805 -23.796875,41.2207 z" /><path
       id="path87-0-3"
       style="display:inline;fill:#111214;fill-opacity:1;stroke:#000000;stroke-width:0.529167;stroke-dasharray:none;stroke-opacity:1"
       d="m 167.06065,215.8804 c 7.93229,13.7402 15.86459,27.4804 23.79688,41.2207 15.86588,0 31.73177,0 47.59765,0 7.93295,-13.7402 15.86589,-27.4805 23.79883,-41.2207 -7.93294,-13.7402 -15.86588,-27.4805 -23.79883,-41.2207 -15.86588,0 -31.73177,0 -47.59765,0 -7.93229,13.7401 -15.86459,27.4804 -23.79688,41.2207 z" /><path
       id="path88-3-3"
       style="display:inline;fill:#111214;fill-opacity:1;stroke:#000000;stroke-width:0.529167;stroke-dasharray:none;stroke-opacity:1"
       d="m 21.382916,215.5268 c 7.93295,13.7402 15.86589,27.4805 23.79883,41.2208 15.86524,0 31.73047,0 47.5957,0 7.932944,-13.7402 15.865894,-27.4805 23.798834,-41.2208 -7.93294,-13.7402 -15.86589,-27.4804 -23.798834,-41.2207 -15.86523,0 -31.73046,0 -47.5957,0 -7.93294,13.7402 -15.86588,27.4805 -23.79883,41.2207 z" /><path
       id="path89-8-5"
       style="display:inline;fill:#111214;fill-opacity:1;stroke:#000000;stroke-width:0.529167;stroke-dasharray:none;stroke-opacity:1"
       d="m -100.08582,174.73 c -7.93165,13.7396 -15.86329,27.4792 -23.79493,41.2188 7.93229,13.7396 15.86458,27.4791 23.79688,41.2187 15.865883,0 31.731763,0 47.597649,0 7.932943,-13.7397 15.865886,-27.4791 23.798828,-41.2187 -7.932942,-13.7403 -15.865885,-27.4805 -23.798828,-41.2207 -15.865886,0 -31.736976,0 -47.599599,0 z" /><path
       id="path90-3-0"
       style="display:inline;fill:#111214;fill-opacity:1;stroke:#000000;stroke-width:0.529167;stroke-dasharray:none;stroke-opacity:1"
       d="m 263.69542,216.5287 c -7.93229,13.7397 -15.86458,27.4792 -23.79688,41.2189 7.93295,13.7401 15.86589,27.4804 23.79883,41.2207 15.86524,0 31.73047,0 47.59571,0 7.93294,-13.7402 15.86588,-27.4805 23.79882,-41.2207 -7.93294,-13.7402 -15.86588,-27.4805 -23.79882,-41.2208 -15.86562,0 -31.73339,0 -47.59766,0 z" /></g><path
     id="path1-84-7-3-5-7"
     style="display:inline;fill:url(#linearGradient66);stroke:none;stroke-width:0.529167;stroke-dasharray:none;stroke-opacity:1;filter:url(#filter61-95)"
     d="m 86.717596,216.584 c 7.93229,13.74023 15.864584,27.48047 23.796874,41.2207 15.86589,0 31.73177,0 47.59766,0 7.93294,-13.74023 15.86588,-27.48047 23.79883,-41.2207 -7.93295,-13.74024 -15.86589,-27.48049 -23.79883,-41.22072 -15.86589,0 -31.73177,0 -47.59766,0 -7.93229,13.74023 -15.864584,27.48048 -23.796874,41.22072 z" /><path
     id="path1-84-7-3-5-19"
     style="display:inline;fill:url(#linearGradient65);stroke:none;stroke-width:0.529167;stroke-dasharray:none;stroke-opacity:1;filter:url(#filter61-9)"
     d="m 291.5875,168.67894 c 7.93229,13.74024 15.86458,27.48047 23.79687,41.22071 15.86589,0 31.73177,0 47.59766,0 7.93294,-13.74024 15.86588,-27.48047 23.79883,-41.22071 -7.93295,-13.74023 -15.86589,-27.48048 -23.79883,-41.22071 -15.86589,0 -31.73177,0 -47.59766,0 -7.93229,13.74023 -15.86458,27.48048 -23.79687,41.22071 z" /><path
     id="path1-84-7-3-5-5"
     style="display:inline;fill:url(#linearGradient64);stroke:none;stroke-width:0.529167;stroke-dasharray:none;stroke-opacity:1;filter:url(#filter61-5)"
     d="m 219.35625,210.08822 c 7.93229,13.74024 15.86458,27.48047 23.79687,41.22071 15.86589,0 31.73177,0 47.59766,0 7.93294,-13.74024 15.86588,-27.48047 23.79883,-41.22071 -7.93295,-13.74023 -15.86589,-27.48048 -23.79883,-41.22071 -15.86589,0 -31.73177,0 -47.59766,0 -7.93229,13.74023 -15.86458,27.48048 -23.79687,41.22071 z" /><path
     id="path1-84-7-3-5"
     style="display:inline;fill:url(#linearGradient7);stroke:none;stroke-width:0.529167;stroke-dasharray:none;stroke-opacity:1;filter:url(#filter61)"
     d="m 212.5961,111.03365 c 7.93229,13.74024 15.86458,27.48047 23.79687,41.22071 15.86589,0 31.73177,0 47.59766,0 7.93294,-13.74024 15.86588,-27.48047 23.79883,-41.22071 -7.93295,-13.74023 -15.86589,-27.48048 -23.79883,-41.22071 -15.86589,0 -31.73177,0 -47.59766,0 -7.93229,13.74023 -15.86458,27.48048 -23.79687,41.22071 z" /><path
     id="path1-84-7-3-5-1"
     style="display:inline;fill:url(#linearGradient63);stroke:none;stroke-width:0.529167;stroke-dasharray:none;stroke-opacity:1;filter:url(#filter61-8)"
     d="m 146.59186,168.73424 c 7.93229,13.74024 15.86458,27.48047 23.79687,41.22071 15.86589,0 31.73177,0 47.59766,0 7.93295,-13.74024 15.86589,-27.48047 23.79884,-41.22071 -7.93295,-13.74023 -15.86589,-27.48048 -23.79884,-41.22071 -15.86589,0 -31.73177,0 -47.59766,0 -7.93229,13.74023 -15.86458,27.48048 -23.79687,41.22071 z" /></svg>
