<svg xmlns="http://www.w3.org/2000/svg" xml:space="preserve" id="Layer_1" width="250px" height="170px" x="0px" y="0px" version="1.1" viewBox="0 0 250 170"><style>.st0{fill:#7f7d7a}.st1{fill:#000}</style><path d="M11.5 142.9v-21.4H7.1V119h11.5v2.4h-4.4v21.4h-2.7zm20.8-13.3v2.4h-5.8v8.5h7.2v2.4h-9.8V119h9.8v2.4h-7.2v8.2zm9.9 8.4-.9 4.8h-2.5l4.6-23.9h3.9l4.6 23.9h-2.7l-.9-4.8zm.3-2.2h5.3L45.2 122zm23.6 7h-2.6l-4-19v19h-2.3V119H61l3.9 19.1 3.8-19.1h3.7v23.9h-2.5v-19.2z" class="st0"/><path d="M93.2 124.5v.9c0 2.5-.7 4-2.4 4.8 2 .8 2.8 2.6 2.8 5.1v1.9c0 3.7-1.9 5.7-5.7 5.7H82V119h5.7c3.8 0 5.5 1.8 5.5 5.5m-7.5-2.1v6.3h1.5c1.4 0 2.3-.6 2.3-2.5v-1.3c0-1.7-.6-2.5-1.9-2.5zm0 9.7v7.3h2.1c1.3 0 1.9-.6 1.9-2.4v-2c0-2.2-.7-2.9-2.4-2.9zM99.2 119h3.8v20.5h6.2v3.4h-9.9V119zm27.1 23.9h-3.8l-.6-4.3h-4.6l-.6 4.3h-3.4L117 119h5.5zm-8.5-7.6h3.6l-1.8-12.1zm24.5-1.3v3.2c0 3.8-1.9 6-5.6 6s-5.6-2.2-5.6-6v-12.4c0-3.8 1.9-6 5.6-6s5.6 2.2 5.6 6v2.3h-3.5v-2.6c0-1.7-.8-2.4-1.9-2.4-1.2 0-1.9.6-1.9 2.4v12.9c0 1.7.8 2.3 1.9 2.3 1.2 0 1.9-.6 1.9-2.3V134zm10.6-.7-1.2 2.2v7.3H148V119h3.8v10.4l4.9-10.4h3.8l-5.2 10.6 5.2 13.2h-3.9zm17.5-14.6c3.6 0 5.5 2.2 5.5 6v.7h-3.5v-1c0-1.7-.7-2.4-1.9-2.4s-1.9.6-1.9 2.4c0 4.9 7.3 5.8 7.3 12.6 0 3.8-1.9 6-5.6 6s-5.6-2.2-5.6-6v-1.5h3.5v1.7c0 1.7.8 2.3 1.9 2.3 1.2 0 1.9-.6 1.9-2.3 0-4.9-7.3-5.8-7.3-12.6.2-3.7 2.1-5.9 5.7-5.9m14.9 24.2h-3.8V119h3.8v10.2h4.3V119h3.8v23.9h-3.8v-10.2h-4.3zm18-13.9h5.1v3.4h-5.1v7h6.5v3.4h-10.2V119h10.2v3.4h-6.5zm15.9 0h5.1v3.4h-5.1v7h6.5v3.4h-10.2V119h10.2v3.4h-6.5zm23.3-4.1v3.1c0 3.8-1.8 5.9-5.6 5.9h-1.8v9h-3.8V119h5.5c3.9 0 5.7 2.1 5.7 5.9m-7.3-2.5v8.1h1.8c1.2 0 1.8-.5 1.8-2.3v-3.6c0-1.7-.6-2.3-1.8-2.3h-1.8z" class="st1"/><path d="M88.2 158.2v.4h-1.5v-.5c0-1.3-.5-2-1.6-2s-1.6.7-1.6 2c0 3.1 4.7 3.4 4.7 7.4 0 2.1-1 3.5-3.2 3.5-2.1 0-3.1-1.4-3.1-3.5v-.8h1.5v.9c0 1.3.5 2 1.6 2s1.6-.7 1.6-2c0-3.1-4.7-3.4-4.7-7.4 0-2.2 1-3.5 3.1-3.5 2.2 0 3.2 1.4 3.2 3.5m9.2 2.8v1.4H94v5h4.2v1.4h-5.8v-14h5.8v1.4H94v4.8zm8.1-6.1c2.2 0 3.1 1.1 3.1 3.2v1.1c0 1.5-.5 2.5-1.7 2.9 1.3.4 1.8 1.4 1.8 2.9v2.2c0 .6 0 1.2.3 1.7h-1.6c-.2-.4-.3-.8-.3-1.7V165c0-1.6-.7-2.1-2-2.1H104v6h-1.6v-14zm-.4 6.5c1.2 0 2-.4 2-1.9v-1.3c0-1.3-.5-1.9-1.6-1.9H104v5.2h1.1zm9.5-6.5v14H113v-14zm4.3 3.3c0-2.1 1.1-3.5 3.2-3.5 2.2 0 3.2 1.4 3.2 3.5v7.2c0 2.1-1.1 3.5-3.2 3.5s-3.2-1.4-3.2-3.5zm1.5 7.3c0 1.3.5 2 1.7 2 1.1 0 1.7-.7 1.7-2v-7.4c0-1.3-.5-2-1.7-2-1.1 0-1.7.8-1.7 2zm10.7 0c0 1.3.5 2 1.6 2s1.6-.8 1.6-2v-10.7h1.5v10.6c0 2.1-1 3.5-3.1 3.5s-3.1-1.4-3.1-3.5v-10.6h1.5zm15.1-7.3v.4h-1.5v-.5c0-1.3-.5-2-1.6-2s-1.6.7-1.6 2c0 3.1 4.7 3.4 4.7 7.4 0 2.1-1 3.5-3.2 3.5-2.1 0-3.1-1.4-3.1-3.5v-.8h1.5v.9c0 1.3.5 2 1.6 2s1.6-.7 1.6-2c0-3.1-4.7-3.4-4.7-7.4 0-2.2 1-3.5 3.1-3.5 2.2 0 3.2 1.4 3.2 3.5m12.1 10.6v-12.6h-2.6v-1.4h6.7v1.4h-2.6v12.6zm7.8-10.6c0-2.1 1.1-3.5 3.2-3.5 2.2 0 3.2 1.4 3.2 3.5v7.2c0 2.1-1.1 3.5-3.2 3.5s-3.2-1.4-3.2-3.5zm1.6 7.3c0 1.3.5 2 1.7 2 1.1 0 1.7-.7 1.7-2v-7.4c0-1.3-.5-2-1.7-2-1.1 0-1.7.8-1.7 2zm11.3-1.7-3-9h1.6l2.2 6.9 2.2-6.9h1.5l-3 9v5H179zm14.4-5.6v.4h-1.5v-.5c0-1.3-.5-2-1.6-2s-1.6.7-1.6 2c0 3.1 4.7 3.4 4.7 7.4 0 2.1-1 3.5-3.2 3.5-2.1 0-3.1-1.4-3.1-3.5v-.8h1.5v.9c0 1.3.5 2 1.6 2s1.6-.7 1.6-2c0-3.1-4.7-3.4-4.7-7.4 0-2.2 1-3.5 3.1-3.5 2.2 0 3.2 1.4 3.2 3.5" class="st0"/><path d="m123.4 87.7-3.9-8.4 5.3 6.9-2.5-84L95 16.9l-1.3 6-13.4 4.6-15.1 12.7-.4 3.8 14 1.8h.1l14.6-2.4 3.9 9.3 13.2 37.9.1.2 14.2 11.1zM96 17.7l25.2-13.5 2.3 78.4-6.3-8.3-6.9-35.4-17.5-6.7 1.8-8.4zM78.9 44.5 66 42.9l.2-2.1 14.5-12.2 12.6-4.3-1.9 8.7 2.3.9c-.3.8-.7 2.9.5 5.9l12.7 2.7.1.3 7.1 23.1-7.5-21.8L93.8 42zm32.7 45.4L98.5 52.1l-3.7-8.8 11.1 1.8 10.2 29.6v.1l.1.1 6.1 13.2 1.1 11.1z" class="st1"/><path d="m126.2 87.7 3.9-8.4-5.3 6.9 2.5-84 27.3 14.7 1.3 6 13.4 4.6 15.1 12.7.4 3.8-14 1.8h-.1l-14.6-2.4-3.9 9.3L139 90.6l-.1.2-14.2 11.1zm27.4-70L128.5 4.1l-2.3 78.4 6.3-8.3 6.9-35.4 17.5-6.7-1.8-8.4zm17.2 26.8 12.8-1.6-.2-2.1-14.5-12.2-12.6-4.3 1.9 8.7-2.3.9c.3.8.7 2.9-.5 5.9l-12.7 2.7-.1.3-7.1 23.1 7.5-21.8 12.9-2.1zM138 89.9l13.2-37.8 3.7-8.8-11.1 1.8-10.2 29.6v.1l-.1.1-6.1 13.1-1.1 11.1z" class="st1"/></svg>